<svg version="1.1" id="Layer_1" xmlns="http://www.w3.org/2000/svg" xmlns:xlink="http://www.w3.org/1999/xlink" x="0px" y="0px"
	 width="100%" viewBox="151 110 1762 1854" enable-background="new 0 0 2048 2048" xml:space="preserve">
<path fill="#000000" opacity="0" stroke="none"
	d="
M1156.000000,2049.000000
	C770.666687,2049.000000 385.833344,2049.000000 1.000000,2049.000000 
	C1.000000,1366.333374 1.000000,683.666687 1.000000,1.000000 
	C683.666687,1.000000 1366.333374,1.000000 2049.000000,1.000000 
	C2049.000000,683.666687 2049.000000,1366.333374 2049.000000,2049.000000 
	C1751.500000,2049.000000 1454.000000,2049.000000 1156.000000,2049.000000 
M1164.445312,865.836243 
	C1164.820679,865.653137 1164.893555,865.387207 1164.874023,864.498962 
	C1164.911255,864.309692 1164.948608,864.120361 1165.453247,863.838684 
	C1165.825562,863.650574 1165.895630,863.383179 1165.871216,862.503662 
	C1165.910645,862.317139 1165.950195,862.130615 1166.458618,861.844238 
	C1166.831787,861.655212 1166.903931,861.385559 1166.881348,860.518250 
	C1166.920166,860.336853 1166.958984,860.155396 1167.463867,859.850403 
	C1167.834106,859.658447 1167.908203,859.385986 1167.954712,858.455261 
	C1168.293335,857.935181 1168.631836,857.415100 1169.623047,856.636658 
	C1175.409058,845.478271 1181.092529,834.265015 1187.014893,823.179443 
	C1191.529053,814.729492 1196.346558,806.441467 1201.503662,797.897217 
	C1201.598389,797.605103 1201.693115,797.313049 1201.981567,796.543213 
	C1202.019775,796.375671 1202.058105,796.208191 1202.728149,795.765503 
	C1211.134033,782.514832 1219.278931,769.089478 1228.002563,756.051453 
	C1243.953247,732.212097 1259.927368,708.375732 1276.512451,684.978088 
	C1287.042236,670.123047 1298.685059,656.056580 1309.843628,641.648071 
	C1316.782104,632.688416 1323.233521,623.282593 1330.830322,614.918823 
	C1340.730469,604.019287 1351.346924,593.741760 1362.021118,583.580933 
	C1376.678467,569.628723 1394.362305,560.104675 1412.682861,552.234741 
	C1425.937622,546.540955 1440.203125,543.200745 1454.833618,538.962646 
	C1468.550049,536.973755 1482.218994,534.518250 1495.995483,533.120911 
	C1511.227661,531.575806 1526.548828,530.812683 1541.848145,530.045410 
	C1565.096436,528.879395 1588.367065,528.150085 1611.613525,526.953186 
	C1627.428223,526.138855 1643.217896,524.842102 1659.851807,523.870300 
	C1661.245728,523.782532 1662.639526,523.694763 1664.477905,523.772095 
	C1664.777466,523.609924 1664.957886,523.361267 1665.925903,522.990173 
	C1669.677856,522.659363 1673.423950,522.226868 1677.182739,522.016235 
	C1689.903076,521.303406 1702.623657,520.238037 1715.352051,520.116638 
	C1730.443970,519.972717 1745.625977,519.812622 1760.615479,521.255493 
	C1773.863281,522.530701 1783.401245,530.138794 1788.257690,543.168030 
	C1793.421875,557.022705 1795.036133,571.441345 1796.157349,585.997375 
	C1797.475464,603.108887 1798.804077,620.219666 1800.198242,637.325134 
	C1800.403809,639.845642 1800.995361,642.334595 1801.408203,644.838196 
	C1801.921143,644.893677 1802.434082,644.949097 1802.947021,645.004517 
	C1803.285034,643.138062 1803.909790,641.272400 1803.915039,639.405029 
	C1803.952271,626.243835 1803.984497,613.080322 1803.782715,599.921265 
	C1803.513672,582.378174 1805.217651,565.100891 1809.946899,548.163025 
	C1814.323853,532.487000 1823.331055,520.594116 1839.361450,516.197388 
	C1848.900513,513.581055 1859.068237,513.214539 1868.971436,511.982513 
	C1875.378540,511.185425 1881.818237,510.652100 1888.243408,510.000641 
	C1884.741699,508.894012 1881.331543,508.191437 1877.898193,508.049530 
	C1867.295166,507.611237 1856.648438,507.821869 1846.083740,506.970947 
	C1832.368530,505.866302 1820.711548,500.911255 1812.625366,488.639008 
	C1803.885254,475.373901 1801.081177,460.536896 1800.204956,445.367523 
	C1799.303345,429.758820 1800.064087,414.057220 1799.962036,398.397186 
	C1799.934570,394.198486 1799.413086,390.003021 1799.118408,385.806061 
	C1797.978760,392.410370 1797.056274,398.952087 1797.156128,405.478180 
	C1797.493042,427.507141 1794.192871,449.098480 1790.015625,470.609680 
	C1787.141479,485.409821 1778.641357,496.324280 1765.821899,503.633667 
	C1752.085327,511.466156 1736.270020,511.644958 1721.179443,513.789185 
	C1700.480957,516.730225 1679.578613,518.236511 1658.047974,520.156189 
	C1654.947510,520.434021 1651.847412,520.947388 1648.746338,520.953918 
	C1607.559937,521.040771 1566.372437,521.238464 1525.187378,521.008240 
	C1506.463745,520.903564 1487.745117,519.916870 1468.118408,519.113953 
	C1455.563721,518.428223 1443.007812,517.765015 1430.455322,517.041077 
	C1427.303345,516.859314 1424.157349,516.528503 1421.017456,516.185608 
	C1414.796509,515.506409 1408.563721,514.900818 1402.368652,514.030029 
	C1391.661743,512.525024 1380.980103,510.839508 1370.287354,509.232574 
	C1358.778809,507.502960 1347.263550,505.815735 1335.762573,504.037140 
	C1325.576050,502.461823 1315.364258,501.003113 1305.237061,499.101715 
	C1291.891479,496.595978 1278.651489,493.526215 1265.303467,491.034485 
	C1251.469727,488.451996 1237.426880,486.868561 1223.713745,483.787689 
	C1196.093628,477.582428 1168.072266,474.253784 1140.020020,471.151337 
	C1123.630005,469.338684 1107.147827,468.291656 1090.687012,467.204529 
	C1072.523560,466.004913 1054.346924,464.647614 1036.157837,464.292419 
	C1017.892578,463.935760 999.601379,464.601227 981.329285,465.102417 
	C976.429077,465.236847 971.557312,466.406219 966.672424,467.100464 
	C972.615906,468.004822 978.465881,467.677429 984.267700,468.066315 
	C1001.564209,469.225677 1018.844177,470.635620 1036.125610,472.010712 
	C1043.852661,472.625519 1051.585449,473.234833 1059.283936,474.122833 
	C1072.332031,475.628021 1085.357666,477.329834 1098.387451,478.991211 
	C1109.139648,480.362152 1119.973511,481.314911 1130.613647,483.297943 
	C1153.447266,487.553497 1176.202759,492.241333 1198.946655,496.961884 
	C1225.046387,502.378937 1250.498169,509.725677 1274.160156,522.452454 
	C1283.824707,527.650635 1288.073730,535.982056 1288.999146,546.300171 
	C1290.096680,558.534424 1285.949341,569.905518 1280.178833,580.078186 
	C1267.790283,601.917969 1254.291138,623.131653 1241.102661,644.512817 
	C1227.178833,667.085999 1212.325928,689.123779 1199.251831,712.174194 
	C1180.537231,745.168701 1162.883667,778.772217 1145.155640,812.315796 
	C1137.601074,826.610107 1131.003906,841.410339 1123.999268,855.993652 
	C1123.999268,855.993652 1123.980591,855.969360 1123.512695,856.126404 
	C1123.148438,856.323608 1123.061890,856.605896 1122.945190,857.623962 
	C1121.962280,859.752136 1120.979248,861.880310 1119.539673,864.151123 
	C1119.180298,864.340576 1119.099609,864.612732 1119.085083,865.475647 
	C1119.056641,865.657104 1119.028320,865.838501 1118.543579,866.155640 
	C1118.185669,866.343018 1118.104126,866.613647 1117.971802,867.628418 
	C1114.736938,874.422485 1111.502075,881.216553 1107.992188,888.563416 
	C1107.667847,889.070923 1107.343506,889.578491 1106.565674,890.178833 
	C1106.204712,890.362671 1106.137085,890.622742 1106.136597,891.513916 
	C1106.098877,891.710022 1106.061035,891.906189 1105.569580,892.184631 
	C1105.212036,892.365051 1105.140381,892.624512 1105.125732,893.500366 
	C1105.089111,893.691528 1105.052368,893.882690 1104.554321,894.168335 
	C1104.188843,894.352905 1104.116333,894.617737 1104.119507,895.500183 
	C1104.083252,895.689941 1104.046875,895.879639 1103.548950,896.165466 
	C1103.184082,896.350098 1103.110107,896.615723 1103.111450,897.495789 
	C1103.077271,897.684570 1103.043091,897.873291 1102.544678,898.161682 
	C1102.179565,898.347290 1102.102905,898.615356 1102.100464,899.487183 
	C1102.069214,899.672424 1102.037842,899.857605 1101.540039,900.154053 
	C1101.172241,900.341919 1101.095093,900.612732 1101.097900,901.478271 
	C1101.065308,901.659912 1101.032837,901.841492 1100.531128,902.143311 
	C1100.161987,902.333923 1100.082886,902.608154 1100.089478,903.478149 
	C1100.059692,903.659546 1100.029907,903.840942 1099.530396,904.143616 
	C1099.161377,904.334717 1099.082031,904.609497 1099.003540,905.584106 
	C1098.666748,906.390381 1098.329956,907.196594 1097.520752,908.132812 
	C1097.150635,908.326599 1097.069214,908.604797 1097.078247,909.467529 
	C1097.049683,909.644592 1097.021118,909.821594 1096.514648,910.126953 
	C1096.142456,910.322571 1096.058716,910.604004 1096.068848,911.461304 
	C1096.041382,911.634888 1096.013794,911.808472 1095.342529,912.254395 
	C1093.242310,916.505310 1091.141968,920.756226 1088.990723,925.001343 
	C1088.990723,925.001343 1089.007202,925.049683 1088.552612,925.165039 
	C1088.192017,925.349182 1088.117554,925.613831 1088.108154,926.490601 
	C1088.073486,926.679321 1088.038818,926.868042 1087.551880,927.168945 
	C1087.195312,927.352356 1087.120361,927.615906 1087.103516,928.491333 
	C1087.070312,928.680786 1087.037109,928.870239 1086.551392,929.167847 
	C1086.190918,929.351196 1086.119751,929.613159 1086.117676,930.494751 
	C1086.079590,930.685669 1086.041504,930.876587 1085.549438,931.169617 
	C1085.189697,931.354004 1085.118896,931.616333 1085.117432,932.492004 
	C1085.078613,932.680969 1085.039673,932.869934 1084.544189,933.164062 
	C1084.182983,933.348633 1084.109985,933.612854 1084.099365,934.679688 
	C1081.730957,939.794861 1079.362671,944.910034 1076.542236,950.158997 
	C1076.183960,950.346252 1076.108521,950.613403 1076.096436,951.487061 
	C1076.062988,951.674255 1076.029541,951.861389 1075.545532,952.164856 
	C1075.190308,952.347290 1075.114014,952.610596 1075.085205,953.668152 
	C1074.057129,956.113098 1073.029175,958.558105 1071.549072,961.151062 
	C1071.189819,961.334534 1071.105225,961.604187 1071.074219,962.459045 
	C1071.055298,962.639954 1071.036255,962.820862 1070.452637,963.256775 
	C1070.299316,963.848328 1070.145996,964.439941 1069.541138,965.160278 
	C1069.183594,965.347351 1069.109497,965.613403 1069.099731,966.486633 
	C1069.065796,966.674255 1069.031860,966.861877 1068.548706,967.166565 
	C1068.191650,967.351135 1068.120361,967.613403 1068.101562,968.681458 
	C1064.125854,977.387695 1060.009399,986.033020 1056.202148,994.812317 
	C1046.734253,1016.644348 1037.396118,1038.532593 1028.027100,1060.407471 
	C1019.685608,1079.882935 1011.135559,1099.273682 1003.106934,1118.877808 
	C993.228149,1142.999390 983.612305,1167.233154 974.213562,1191.546143 
	C961.633972,1224.087158 949.371216,1256.750488 936.973328,1289.361572 
	C931.184875,1304.587158 925.446838,1319.832275 919.596863,1335.034180 
	C914.458862,1348.385620 909.196228,1361.689209 903.364807,1375.406616 
	C900.048645,1383.345093 897.105591,1391.465576 893.341431,1399.185669 
	C884.543640,1417.229492 875.351624,1435.081055 865.972534,1453.650391 
	C863.335938,1458.303955 860.769165,1462.998779 858.049622,1467.603271 
	C850.176331,1480.933838 841.602295,1493.895508 834.466858,1507.607422 
	C820.480164,1534.485107 802.312744,1558.334961 782.403503,1580.861572 
	C772.363159,1592.222168 761.292419,1602.835083 749.710144,1612.630127 
	C733.946533,1625.961426 717.248169,1638.187256 700.250732,1651.018066 
	C688.768311,1657.894287 677.518982,1665.201904 665.754333,1671.555664 
	C642.131470,1684.313599 617.771423,1695.394531 591.649109,1702.246704 
	C573.047302,1707.126221 554.382507,1711.261230 535.000977,1711.030273 
	C525.954773,1710.922485 516.906189,1711.011841 507.239044,1711.011841 
	C508.054810,1712.003052 508.310242,1712.628540 508.644043,1712.673584 
	C519.544739,1714.146729 530.426514,1716.455078 541.366211,1716.779785 
	C557.513916,1717.259033 573.764648,1717.070312 589.857178,1715.760986 
	C603.967346,1714.613037 618.243652,1712.719849 631.864319,1709.015259 
	C650.774780,1703.871948 669.442322,1697.477905 687.634094,1690.175171 
	C699.693542,1685.333984 710.737793,1677.963745 723.003845,1671.749512 
	C732.043457,1665.556274 741.373535,1659.742554 750.063965,1653.093018 
	C769.876465,1637.933594 788.357910,1621.228638 805.297180,1602.897339 
	C812.116394,1595.518066 819.080200,1588.113647 824.774841,1579.887573 
	C836.211853,1563.366699 847.041504,1546.410400 857.686951,1529.362305 
	C863.612366,1519.873047 868.662354,1509.837280 874.747192,1499.781128 
	C877.846558,1494.017944 881.167603,1488.361572 884.004517,1482.472046 
	C893.195190,1463.392944 902.460205,1444.342407 911.202271,1425.056885 
	C917.162720,1411.907837 922.296631,1398.384033 928.099731,1384.365845 
	C938.386841,1359.755371 948.919006,1335.243286 958.869629,1310.497559 
	C964.922363,1295.445435 969.678162,1279.871826 975.721191,1264.815430 
	C987.494690,1235.481079 999.506958,1206.235962 1011.902649,1177.159546 
	C1023.258057,1150.523193 1034.884521,1123.988647 1047.072144,1097.724976 
	C1057.199951,1075.900391 1068.317261,1054.534912 1079.440918,1032.830200 
	C1079.791382,1032.648315 1079.871582,1032.384277 1079.915527,1031.536255 
	C1079.944702,1031.354126 1079.973999,1031.171875 1080.452759,1030.844360 
	C1080.810059,1030.659058 1080.890137,1030.391113 1080.916382,1029.538574 
	C1080.946045,1029.357910 1080.975586,1029.177246 1081.471436,1028.862305 
	C1081.839355,1028.672119 1081.920654,1028.397095 1081.921509,1027.535400 
	C1081.949707,1027.356689 1081.977783,1027.177979 1082.476074,1026.865356 
	C1082.847656,1026.672241 1082.927368,1026.395142 1083.022339,1025.379395 
	C1084.013672,1023.251587 1085.004883,1021.123718 1086.640625,1018.702026 
	C1088.392212,1015.388367 1090.222412,1012.113586 1091.881958,1008.754456 
	C1099.904907,992.515869 1107.830322,976.229004 1115.888550,960.008057 
	C1125.392090,940.877319 1134.943359,921.769836 1144.578003,902.704834 
	C1149.945801,892.083130 1155.525024,881.568237 1161.630005,870.727539 
	C1162.393433,869.142639 1163.156982,867.557739 1163.990112,865.979919 
	C1163.990112,865.979919 1163.975342,865.911316 1164.445312,865.836243 
M797.000000,482.001221 
	C797.000000,482.001221 796.999512,481.992950 797.850403,481.946136 
	C804.945557,480.729248 812.021851,479.385498 819.140076,478.323212 
	C831.956177,476.410583 844.774719,474.480194 857.635498,472.911499 
	C867.818909,471.669312 878.067017,470.957245 888.286377,470.009796 
	C858.378418,464.710510 828.681519,467.704529 798.191956,471.019653 
	C797.117004,471.110779 796.041992,471.201904 794.383911,471.149597 
	C793.906677,471.426178 793.429382,471.702759 792.067810,471.994354 
	C788.819275,472.325470 785.560303,472.577362 782.324219,473.003021 
	C773.559326,474.155945 764.743042,475.051056 756.058228,476.651367 
	C739.665161,479.672089 723.349854,483.115326 706.211365,486.188721 
	C705.137268,486.498138 704.063599,486.809265 702.988953,487.116669 
	C677.370728,494.445679 651.679565,501.532806 626.170593,509.224060 
	C616.226440,512.222290 606.692261,516.580688 596.276917,520.171570 
	C594.895020,520.793701 593.513123,521.415833 591.557983,522.168396 
	C591.375427,522.239685 591.192932,522.310974 590.300598,522.193542 
	C587.242920,523.322266 584.185059,524.450623 581.127563,525.579834 
	C563.460754,532.104492 546.982849,541.040527 531.440063,551.507141 
	C519.491394,559.553406 507.118286,567.608032 500.035553,580.828796 
	C497.316589,585.904114 494.290558,591.892822 494.592377,597.286987 
	C495.246490,608.977234 500.881012,618.438232 511.344421,625.079956 
	C531.212219,637.690979 552.717163,639.963684 575.309021,636.661987 
	C579.029602,636.118286 582.646240,634.863525 586.310913,633.937378 
	C571.425781,635.423035 557.334961,634.028198 544.907654,625.022034 
	C529.012207,613.502502 527.384277,599.798767 538.272888,586.693298 
	C545.258057,578.286011 554.016846,571.025085 562.995667,564.688599 
	C573.036133,557.602905 584.223877,552.142761 595.598206,545.856262 
	C596.408264,545.449829 597.218384,545.043335 598.483337,544.773804 
	C598.809875,544.601868 598.939636,544.334412 599.598877,543.839722 
	C601.744324,542.770996 603.889832,541.702209 606.484863,540.765869 
	C606.801270,540.596863 606.936951,540.334412 607.472168,539.842773 
	C607.658630,539.774170 607.845154,539.705566 608.485657,539.771729 
	C608.802856,539.602295 608.945312,539.338562 609.484680,538.850342 
	C609.667603,538.781433 609.850464,538.712463 610.488403,538.769836 
	C610.796753,538.601318 610.949829,538.341370 611.706848,537.870422 
	C627.910461,531.635925 644.013000,525.119934 660.349121,519.254517 
	C673.763062,514.438293 687.454651,510.395142 701.703857,505.960205 
	C702.145874,505.864227 702.587891,505.768280 703.498230,505.779999 
	C703.787964,505.602539 703.971924,505.348480 704.722168,504.983093 
	C705.158325,504.892456 705.594543,504.801788 706.613892,504.845001 
	C707.084778,504.567627 707.555664,504.290253 708.815857,503.957153 
	C722.959717,500.049194 737.031799,495.852509 751.268372,492.317749 
	C764.434753,489.048645 777.777222,486.488403 791.489258,483.761780 
	C791.787537,483.594025 791.953186,483.339783 792.799805,482.930756 
	C793.879944,482.827148 794.960022,482.723541 796.489868,482.764954 
	C796.788940,482.596191 796.955994,482.340973 797.000000,482.001221 
M689.358704,1369.304932 
	C679.461548,1385.778198 668.052246,1400.950073 651.805542,1411.768799 
	C638.936523,1420.338379 624.934509,1426.064331 609.331909,1426.950684 
	C598.229675,1427.581299 587.102356,1427.771484 575.086548,1428.028687 
	C566.074951,1427.344604 556.941101,1427.368286 548.075745,1425.837402 
	C525.834778,1421.996704 508.902588,1410.057251 498.992218,1389.643921 
	C489.832306,1370.776367 487.341461,1350.455444 487.665253,1329.561401 
	C487.858154,1317.113770 486.557312,1304.641724 485.849396,1292.185181 
	C485.811890,1291.525146 485.041138,1290.906982 484.611755,1290.269287 
	C484.130463,1290.321167 483.649200,1290.372925 483.167908,1290.424805 
	C483.167908,1304.301270 483.433044,1318.184692 483.076447,1332.052002 
	C482.831055,1341.595215 482.262146,1351.195435 480.878235,1360.629395 
	C478.674744,1375.650635 475.937531,1390.702271 467.992950,1403.992065 
	C461.350372,1415.104004 452.988770,1424.743530 439.328308,1426.985962 
	C424.784576,1429.373535 410.137604,1431.170044 395.501099,1432.938232 
	C388.641815,1433.766846 381.701263,1433.922363 374.797546,1434.382935 
	C387.778168,1434.852539 400.748657,1434.876465 413.719025,1434.845215 
	C424.915649,1434.818237 435.847473,1435.672363 446.123108,1440.976196 
	C461.038452,1448.675293 471.913361,1459.324707 476.139740,1476.275391 
	C479.331329,1489.075928 479.756866,1502.006714 480.056335,1515.937256 
	C479.759491,1545.515747 479.644257,1575.097656 479.102295,1604.671631 
	C478.738068,1624.547852 477.423126,1644.408203 477.152771,1664.284058 
	C476.743195,1694.394775 476.352448,1724.568604 481.200195,1754.414185 
	C482.880737,1764.760254 486.329163,1774.819458 489.008301,1785.696289 
	C489.102936,1786.140381 489.197540,1786.584595 489.223419,1787.499634 
	C489.404480,1787.781494 489.657776,1787.962158 490.003143,1788.816284 
	C495.717590,1801.751465 500.293396,1815.359253 507.435150,1827.451416 
	C516.324646,1842.502930 526.746948,1856.768921 537.642090,1870.471802 
	C544.323059,1878.874512 553.130127,1885.586792 561.252380,1893.677856 
	C567.546814,1898.429932 573.730164,1903.338623 580.158325,1907.902344 
	C594.599792,1918.154907 610.794678,1924.723755 627.878784,1928.758057 
	C642.000977,1932.092651 656.328308,1934.813477 670.708740,1936.719604 
	C682.306213,1938.256714 694.126526,1938.779297 705.833679,1938.630493 
	C717.005127,1938.488647 728.145325,1936.694702 739.322144,1935.988159 
	C758.748047,1934.760498 777.562073,1930.980103 795.721619,1923.851929 
	C820.643250,1914.069580 843.559387,1900.818726 863.772888,1883.330444 
	C885.034912,1864.935059 902.024414,1842.965820 915.610168,1817.633789 
	C919.946167,1808.632202 924.534851,1799.742065 928.564575,1790.605347 
	C936.493225,1772.628540 941.612549,1753.733887 945.742554,1734.586914 
	C947.159302,1728.018921 947.666931,1721.252563 948.541687,1714.570435 
	C950.037048,1703.147339 951.790222,1691.747437 952.883606,1680.285156 
	C953.951050,1669.095093 954.477173,1657.845703 954.973267,1646.610474 
	C955.717712,1629.748657 956.228394,1612.876343 957.002563,1595.277832 
	C956.670959,1583.749878 956.353149,1572.221436 956.004333,1560.693970 
	C955.563721,1546.134521 955.097900,1531.575928 954.837341,1516.127563 
	C954.562683,1512.681274 954.207031,1509.239258 954.026672,1505.787964 
	C952.990173,1485.951660 952.010986,1466.112427 950.980652,1446.275757 
	C950.293762,1433.050903 949.643188,1419.823120 948.797668,1406.608032 
	C948.415710,1400.638428 947.598938,1394.696533 946.924255,1388.211792 
	C943.164368,1397.767944 940.227600,1406.991455 935.992126,1415.573975 
	C930.022400,1427.670776 927.334778,1439.928833 927.824768,1453.571777 
	C928.738831,1479.025635 928.268127,1504.529419 928.191589,1530.932129 
	C927.848877,1553.624390 927.506104,1576.316650 927.021362,1599.858398 
	C926.688843,1602.965698 926.351929,1606.072388 926.024719,1609.180298 
	C923.984741,1628.556763 922.641296,1648.039551 919.703125,1667.278809 
	C917.041748,1684.705322 912.821167,1701.906372 908.962097,1719.133911 
	C904.349976,1739.723145 898.029663,1759.725586 887.569641,1778.238281 
	C884.118042,1784.347046 881.136475,1790.721436 877.322876,1797.291992 
	C876.570557,1798.553955 875.816040,1799.814575 875.066284,1801.078125 
	C863.153320,1821.155884 848.331421,1838.887573 830.015808,1853.269897 
	C806.897522,1871.423340 781.056641,1884.576538 752.446716,1892.000854 
	C736.538208,1896.129272 720.556335,1899.813965 704.025757,1899.966064 
	C684.851746,1900.142578 665.909180,1898.418701 647.084900,1894.266968 
	C623.406738,1889.044678 600.910217,1881.051392 580.538025,1867.907471 
	C563.835510,1857.131470 549.437744,1843.602783 536.847046,1827.318237 
	C535.131836,1824.947754 533.384155,1822.599854 531.706665,1820.202881 
	C522.167969,1806.572266 515.640381,1791.442993 509.603577,1775.275513 
	C501.825836,1751.090942 495.420593,1726.585693 492.914673,1701.225586 
	C491.441956,1686.321411 489.909851,1671.405762 489.118683,1656.457520 
	C488.505432,1644.869873 488.998901,1633.223755 489.001038,1621.603638 
	C489.006073,1594.416382 489.011536,1567.229248 489.534912,1539.754028 
	C489.558350,1539.193604 489.581787,1538.633179 489.790222,1537.142822 
	C489.805603,1528.432129 489.820984,1519.721558 490.006073,1510.182129 
	C491.005981,1503.561401 491.786591,1496.898315 493.051910,1490.328735 
	C495.615387,1477.018799 500.036896,1464.426270 508.773438,1453.765137 
	C518.445496,1441.962402 532.024414,1437.603638 546.242004,1435.092773 
	C555.719482,1433.419189 565.398254,1432.885010 575.906860,1432.004272 
	C586.152405,1431.642334 596.409424,1430.797607 606.640442,1431.042725 
	C619.016418,1431.339111 630.972168,1429.224976 642.352478,1425.004761 
	C666.730469,1415.964600 683.994690,1398.264893 698.641907,1376.661377 
	C701.093262,1372.359619 703.554749,1368.063477 705.994141,1363.754883 
	C713.016785,1351.351074 718.061890,1338.145630 722.000732,1324.479248 
	C723.169434,1320.424072 725.205750,1316.533447 725.805725,1312.416138 
	C727.479309,1300.930908 728.663330,1289.372314 729.910889,1277.828735 
	C730.188721,1275.257812 729.934937,1272.629272 729.904053,1269.093750 
	C729.811218,1264.718628 729.718384,1260.343628 729.776245,1255.512695 
	C729.608032,1255.214111 729.356140,1255.029663 728.990723,1254.041260 
	C727.611511,1244.342529 726.808533,1234.519531 724.747131,1224.968018 
	C718.039062,1193.886108 702.376892,1167.559814 680.314087,1145.010620 
	C671.574768,1136.078491 662.543091,1127.252563 652.648804,1119.679199 
	C641.909607,1111.459229 630.659119,1103.345947 618.460266,1097.730591 
	C601.805115,1090.063721 584.343323,1083.710205 566.662720,1078.845947 
	C551.861816,1074.774048 536.250793,1073.646973 520.144043,1071.031006 
	C512.095398,1070.404297 504.042480,1069.222656 495.999054,1069.284302 
	C484.617126,1069.371582 473.189453,1069.888672 461.877686,1071.112915 
	C447.894836,1072.626343 433.938202,1074.662476 420.112061,1077.234863 
	C412.235504,1078.700195 404.641754,1081.685303 396.126648,1084.014160 
	C381.619385,1089.346069 366.952545,1094.287109 352.651428,1100.124146 
	C339.386169,1105.538208 327.049683,1112.808716 315.221069,1122.050415 
	C313.218414,1123.464233 311.099121,1124.739746 309.232788,1126.315186 
	C300.111481,1134.014648 291.045441,1141.779907 281.982849,1149.548828 
	C267.499237,1161.964722 254.396606,1175.758179 243.294632,1191.221313 
	C234.899658,1202.913940 227.665085,1215.439697 219.915451,1227.595581 
	C209.508957,1243.918945 201.046326,1261.277100 195.314331,1279.688721 
	C184.770645,1313.555786 176.768356,1348.009277 176.023697,1383.734985 
	C175.834076,1392.831665 176.064240,1401.936523 175.980988,1411.036499 
	C175.815872,1429.086670 179.477921,1446.584473 182.836166,1464.210938 
	C188.541168,1494.154663 200.342941,1521.599976 215.045395,1548.761719 
	C221.096985,1558.837646 227.148575,1568.913452 233.230865,1579.682007 
	C247.536942,1600.503296 264.352814,1619.099854 283.344421,1636.604248 
	C286.653656,1639.295532 290.040802,1641.897095 293.258789,1644.693237 
	C308.895569,1658.280762 325.642334,1670.364868 344.080078,1679.763062 
	C354.755463,1685.204468 366.147797,1689.283325 377.344757,1693.648804 
	C406.837677,1705.147461 437.172821,1711.398560 469.037598,1707.633911 
	C467.234711,1706.882446 465.377991,1706.364746 463.486786,1706.063232 
	C458.482361,1705.265381 453.217651,1705.284058 448.496185,1703.682007 
	C435.087158,1699.132202 421.506409,1694.777466 408.698761,1688.827515 
	C377.054810,1674.126465 347.581909,1655.793701 320.697144,1632.418335 
	C319.419525,1631.228394 318.053040,1630.119629 316.878906,1628.835205 
	C309.930237,1621.232788 303.026245,1613.589600 295.966339,1605.453857 
	C295.884552,1605.298828 295.802765,1605.143921 295.768250,1604.519165 
	C295.593079,1604.218628 295.331604,1604.065186 294.720490,1603.400635 
	C294.178040,1603.072266 293.448669,1602.872437 293.120941,1602.396240 
	C287.154663,1593.725830 281.236633,1585.022095 274.984131,1575.735352 
	C272.021698,1570.742188 268.993286,1565.786743 266.118256,1560.743774 
	C263.927734,1556.901245 261.931854,1552.947754 259.882019,1548.347168 
	C258.919006,1546.916260 257.955994,1545.485229 256.856445,1543.520020 
	C256.795013,1543.346924 256.733551,1543.173706 256.831940,1542.517700 
	C256.552887,1542.357056 256.273834,1542.196289 255.856110,1541.336182 
	C255.132675,1539.890503 254.409225,1538.444702 253.836380,1536.514038 
	C253.559998,1536.345581 253.283600,1536.177124 252.879471,1535.280151 
	C249.979828,1529.083008 246.943802,1522.945557 244.202805,1516.678955 
	C227.343597,1478.134644 216.215195,1438.023438 214.276917,1395.919800 
	C213.380432,1376.446411 213.813370,1356.630371 216.452942,1337.354248 
	C219.140640,1317.726685 224.509018,1298.345337 230.113892,1279.270508 
	C236.389603,1257.912720 245.605438,1237.632080 256.825134,1218.313843 
	C265.749847,1202.947021 276.411285,1188.875366 287.986023,1175.452393 
	C291.652100,1171.200928 295.337219,1166.966064 299.482544,1162.773438 
	C299.788055,1162.597168 299.931152,1162.333008 300.543945,1161.730347 
	C302.690582,1159.802368 304.837219,1157.874390 307.627747,1155.714722 
	C318.555939,1147.712402 329.181000,1139.246094 340.504547,1131.848877 
	C350.263000,1125.474243 360.816986,1120.317261 371.475739,1114.770752 
	C371.796631,1114.600952 371.944885,1114.334839 372.479858,1113.867310 
	C372.655945,1113.796631 372.832031,1113.726074 373.480499,1113.787476 
	C373.799561,1113.613037 373.961090,1113.343994 374.499146,1112.890259 
	C374.666626,1112.822632 374.834076,1112.755127 375.487976,1112.805908 
	C375.663849,1112.534668 375.839722,1112.263306 376.732025,1111.923828 
	C377.825012,1111.505981 378.918030,1111.088135 380.482697,1110.765747 
	C380.779327,1110.589844 380.955750,1110.331787 381.668243,1109.920288 
	C382.434662,1109.525757 383.201080,1109.131104 384.725159,1108.850586 
	C390.973907,1106.574951 397.095856,1103.823853 403.496277,1102.116943 
	C419.829559,1097.760864 436.229858,1093.619751 452.709534,1089.857788 
	C472.769012,1085.278809 493.260834,1085.250854 513.697571,1085.050781 
	C517.794312,1085.010620 521.896851,1085.564575 526.830200,1085.997437 
	C528.257996,1086.322510 529.669922,1086.779663 531.115906,1086.952393 
	C546.703674,1088.814575 562.024963,1091.583618 577.006775,1096.657104 
	C597.633484,1103.642090 617.831177,1111.436035 635.561157,1124.279541 
	C645.278992,1131.319336 655.202942,1138.521973 663.266418,1147.278809 
	C672.294434,1157.083130 679.668579,1168.496338 687.138428,1179.628174 
	C697.027283,1194.364868 703.184326,1210.801514 707.127014,1228.615356 
	C707.412598,1229.084229 707.698181,1229.553101 708.031921,1230.779053 
	C708.130615,1231.527100 708.229248,1232.275146 708.207886,1233.490601 
	C708.380066,1233.801758 708.643860,1233.963745 709.061340,1234.781616 
	C709.153992,1235.849487 709.246704,1236.917480 709.159790,1238.589355 
	C709.464600,1239.049072 709.769470,1239.508789 710.115234,1240.775146 
	C710.190918,1241.845093 710.266602,1242.915039 710.159363,1244.684570 
	C710.800842,1246.111694 711.442383,1247.538818 712.109863,1249.812134 
	C712.194275,1251.216553 712.278687,1252.621094 712.210022,1254.487671 
	C712.379883,1254.794922 712.638245,1254.975586 713.039551,1255.857300 
	C713.136475,1257.231812 713.233398,1258.606445 713.147827,1260.744995 
	C713.453735,1262.154419 713.759583,1263.563843 714.101257,1265.852173 
	C714.172241,1269.319824 714.243225,1272.787354 714.097168,1276.991943 
	C713.759155,1281.246826 713.679626,1285.541504 713.033569,1289.749146 
	C711.254211,1301.337524 709.639832,1312.974731 707.214905,1324.434937 
	C704.044067,1339.420410 698.309998,1353.546143 690.541077,1367.152222 
	C690.184448,1367.342285 690.103271,1367.614502 690.085876,1368.466309 
	C690.049805,1368.642944 690.013794,1368.819458 689.358704,1369.304932 
M951.002563,312.054260 
	C949.942566,293.039307 948.882568,274.024384 947.964050,254.150345 
	C946.644470,244.062088 945.441650,233.956833 943.976196,223.889816 
	C942.088928,210.925522 940.660522,197.844666 937.852356,185.073959 
	C930.804871,153.023270 908.773682,135.131500 875.373230,135.152466 
	C865.430969,135.158707 855.490662,135.849045 845.546509,135.957367 
	C832.022156,136.104660 818.494934,135.994064 804.968933,135.994064 
	C805.682800,137.145966 806.493347,137.648987 807.375427,137.885513 
	C831.379395,144.322159 850.769531,157.871460 864.431213,178.287750 
	C872.431396,190.243393 877.680420,204.039993 884.026794,217.813843 
	C887.408142,234.879456 890.789490,251.945053 894.028015,269.879456 
	C894.357178,272.969147 894.778931,276.052277 894.998596,279.149750 
	C895.709961,289.176453 896.098938,299.232574 897.071350,309.232727 
	C898.509338,324.021454 900.619446,338.747070 901.939514,353.544495 
	C903.861145,375.084900 905.393005,396.661041 906.979065,418.230164 
	C908.081970,433.229462 909.076904,448.237793 909.974915,463.250763 
	C911.061768,481.420776 912.103088,499.594849 912.964722,517.776611 
	C913.772339,534.817322 914.456055,551.866455 914.944946,568.919006 
	C915.477112,587.478943 915.970032,606.046448 916.018982,624.611877 
	C916.063354,641.454834 915.108887,658.303345 915.278687,675.142456 
	C915.506348,697.706482 916.498718,720.261658 916.966125,742.824707 
	C917.434448,765.432983 917.733337,788.045471 917.976990,810.657532 
	C918.371460,847.264404 918.602661,883.873169 919.024170,920.479675 
	C919.174561,933.544861 919.826416,946.604187 919.990845,959.669434 
	C920.443359,995.609253 920.721741,1031.551270 921.157104,1067.491211 
	C921.258362,1075.851196 921.725647,1084.206543 921.990173,1092.565063 
	C922.057739,1094.699097 921.994263,1096.837524 921.563660,1099.165649 
	C921.563660,1099.165649 921.256775,1099.519165 921.256775,1099.519165 
	C921.256775,1099.519165 921.426941,1099.955200 921.234131,1100.876709 
	C921.272034,1105.910156 921.309875,1110.943481 921.140747,1116.897339 
	C921.427185,1138.981812 921.804443,1161.065674 921.972046,1183.151123 
	C922.111694,1201.556641 922.196045,1219.966919 921.925110,1238.369507 
	C921.795776,1247.158569 920.779785,1255.934204 920.175842,1264.716675 
	C919.713379,1271.441162 919.267212,1278.166626 918.813843,1284.891724 
	C926.998657,1266.430054 934.016479,1247.765991 941.966431,1229.507812 
	C945.824890,1220.646484 947.093628,1211.853882 947.097595,1202.331665 
	C947.111511,1168.754028 947.656250,1135.176758 948.004517,1101.599243 
	C948.014832,1100.604980 948.067444,1099.610596 948.120239,1098.617310 
	C948.609619,1089.403442 949.103516,1080.190063 949.784851,1070.059570 
	C950.458191,1044.833984 951.438416,1019.612061 951.745911,994.381958 
	C952.584167,925.597107 953.128845,856.808716 953.809021,788.021973 
	C954.121521,756.414124 954.423401,724.805908 954.841614,693.199402 
	C955.023865,679.422180 955.639160,665.650391 955.782776,651.873230 
	C955.963379,634.546021 955.962708,617.215271 955.862488,599.887085 
	C955.630554,559.782959 955.462463,519.677246 954.933716,479.576599 
	C954.599792,454.254395 953.622070,428.941132 953.007874,403.622040 
	C952.501709,382.756226 952.105469,361.887756 951.849792,340.097382 
	C951.762146,331.373138 951.674500,322.648926 951.728577,313.497406 
	C951.555237,313.231964 951.314270,313.062805 951.002563,312.054260 
z"/>
<path fill="#F9C5E3" opacity="1.000000" stroke="none" 
	d="
M921.347778,1115.976929 
	C921.309875,1110.943481 921.272034,1105.910156 921.488281,1100.295410 
	C921.916321,1099.498169 921.999207,1099.251343 921.990967,1098.973877 
	C921.994263,1096.837524 922.057739,1094.699097 921.990173,1092.565063 
	C921.725647,1084.206543 921.258362,1075.851196 921.157104,1067.491211 
	C920.721741,1031.551270 920.443359,995.609253 919.990845,959.669434 
	C919.826416,946.604187 919.174561,933.544861 919.024170,920.479675 
	C918.602661,883.873169 918.371460,847.264404 917.976990,810.657532 
	C917.733337,788.045471 917.434448,765.432983 916.966125,742.824707 
	C916.498718,720.261658 915.506348,697.706482 915.278687,675.142456 
	C915.108887,658.303345 916.063354,641.454834 916.018982,624.611877 
	C915.970032,606.046448 915.477112,587.478943 914.944946,568.919006 
	C914.456055,551.866455 913.772339,534.817322 912.964722,517.776611 
	C912.103088,499.594849 911.061768,481.420776 909.974915,463.250763 
	C909.076904,448.237793 908.081970,433.229462 906.979065,418.230164 
	C905.393005,396.661041 903.861145,375.084900 901.939514,353.544495 
	C900.619446,338.747070 898.509338,324.021454 897.071350,309.232727 
	C896.098938,299.232574 895.709961,289.176453 894.998596,279.149750 
	C894.778931,276.052277 894.357178,272.969147 894.431641,269.494781 
	C896.516541,270.666656 898.757202,271.921753 899.785828,273.830139 
	C905.271179,284.007660 911.849670,293.893066 915.390564,304.747131 
	C919.922241,318.638336 929.665588,327.700104 939.830444,336.637360 
	C942.778992,339.229828 947.663574,339.620453 951.660522,341.020447 
	C952.105469,361.887756 952.501709,382.756226 953.007874,403.622040 
	C953.622070,428.941132 954.599792,454.254395 954.933716,479.576599 
	C955.462463,519.677246 955.630554,559.782959 955.862488,599.887085 
	C955.962708,617.215271 955.963379,634.546021 955.782776,651.873230 
	C955.639160,665.650391 955.023865,679.422180 954.841614,693.199402 
	C954.423401,724.805908 954.121521,756.414124 953.809021,788.021973 
	C953.128845,856.808716 952.584167,925.597107 951.745911,994.381958 
	C951.438416,1019.612061 950.458191,1044.833984 949.363586,1070.586670 
	C946.889587,1074.636475 944.718018,1078.096924 942.827820,1081.704712 
	C941.661194,1083.931396 940.547485,1086.310059 940.075134,1088.749268 
	C939.220154,1093.164795 939.028992,1097.618652 933.963501,1099.847778 
	C932.664795,1100.419434 931.419312,1102.643311 931.333801,1104.174316 
	C930.964966,1110.780518 927.856995,1114.701172 921.347778,1115.976929 
z"/>
<path fill="#C5DBB0" opacity="1.000000" stroke="none" 
	d="
M1123.971680,855.980713 
	C1131.003906,841.410339 1137.601074,826.610107 1145.155640,812.315796 
	C1162.883667,778.772217 1180.537231,745.168701 1199.251831,712.174194 
	C1212.325928,689.123779 1227.178833,667.085999 1241.102661,644.512817 
	C1254.291138,623.131653 1267.790283,601.917969 1280.178833,580.078186 
	C1285.949341,569.905518 1290.096680,558.534424 1288.999146,546.300171 
	C1288.073730,535.982056 1283.824707,527.650635 1274.160156,522.452454 
	C1250.498169,509.725677 1225.046387,502.378937 1198.946655,496.961884 
	C1176.202759,492.241333 1153.447266,487.553497 1130.613647,483.297943 
	C1119.973511,481.314911 1109.139648,480.362152 1098.387451,478.991211 
	C1085.357666,477.329834 1072.332031,475.628021 1059.283936,474.122833 
	C1051.585449,473.234833 1043.852661,472.625519 1036.125610,472.010712 
	C1018.844177,470.635620 1001.564209,469.225677 984.267700,468.066315 
	C978.465881,467.677429 972.615906,468.004822 966.672424,467.100464 
	C971.557312,466.406219 976.429077,465.236847 981.329285,465.102417 
	C999.601379,464.601227 1017.892578,463.935760 1036.157837,464.292419 
	C1054.346924,464.647614 1072.523560,466.004913 1090.687012,467.204529 
	C1107.147827,468.291656 1123.630005,469.338684 1140.020020,471.151337 
	C1168.072266,474.253784 1196.093628,477.582428 1223.713745,483.787689 
	C1237.426880,486.868561 1251.469727,488.451996 1265.303467,491.034485 
	C1278.651489,493.526215 1291.891479,496.595978 1305.237061,499.101715 
	C1315.364258,501.003113 1325.576050,502.461823 1335.762573,504.037140 
	C1347.263550,505.815735 1358.778809,507.502960 1370.287354,509.232574 
	C1380.980103,510.839508 1391.661743,512.525024 1402.368652,514.030029 
	C1408.563721,514.900818 1414.796509,515.506409 1421.017456,516.185608 
	C1424.157349,516.528503 1427.303345,516.859314 1430.455322,517.041077 
	C1443.007812,517.765015 1455.563721,518.428223 1468.574951,519.582397 
	C1465.416382,524.116089 1461.702148,528.099304 1458.229492,532.282837 
	C1456.587402,534.261047 1455.407349,536.622925 1454.017944,538.810913 
	C1440.203125,543.200745 1425.937622,546.540955 1412.682861,552.234741 
	C1394.362305,560.104675 1376.678467,569.628723 1362.021118,583.580933 
	C1351.346924,593.741760 1340.730469,604.019287 1330.830322,614.918823 
	C1323.233521,623.282593 1316.782104,632.688416 1309.843628,641.648071 
	C1298.685059,656.056580 1287.042236,670.123047 1276.512451,684.978088 
	C1259.927368,708.375732 1243.953247,732.212097 1228.002563,756.051453 
	C1219.278931,769.089478 1211.134033,782.514832 1202.098633,795.768860 
	C1199.490479,796.272217 1197.113647,796.240845 1195.605957,797.369934 
	C1190.718750,801.029968 1186.234619,805.222107 1181.440430,809.013672 
	C1173.291138,815.458740 1165.537720,822.615723 1156.680054,827.901855 
	C1144.833984,834.971252 1132.839844,841.393921 1126.270630,854.368347 
	C1125.897705,855.104919 1124.755737,855.452209 1123.971680,855.980713 
z"/>
<path fill="#F4CCE0" opacity="1.000000" stroke="none" 
	d="
M537.079041,1827.975952 
	C549.437744,1843.602783 563.835510,1857.131470 580.538025,1867.907471 
	C600.910217,1881.051392 623.406738,1889.044678 647.084900,1894.266968 
	C665.909180,1898.418701 684.851746,1900.142578 704.025757,1899.966064 
	C720.556335,1899.813965 736.538208,1896.129272 752.446716,1892.000854 
	C781.056641,1884.576538 806.897522,1871.423340 830.015808,1853.269897 
	C848.331421,1838.887573 863.153320,1821.155884 875.066284,1801.078125 
	C875.816040,1799.814575 876.570557,1798.553955 877.932251,1797.285400 
	C880.345459,1799.004272 882.320435,1800.587158 883.908936,1802.492432 
	C885.800293,1804.760864 886.829834,1808.267456 889.161560,1809.553101 
	C896.504761,1813.601807 904.405396,1816.398193 913.002136,1816.559204 
	C913.672546,1816.571655 914.326416,1817.469116 914.987976,1817.955322 
	C902.024414,1842.965820 885.034912,1864.935059 863.772888,1883.330444 
	C843.559387,1900.818726 820.643250,1914.069580 795.721619,1923.851929 
	C777.562073,1930.980103 758.748047,1934.760498 739.322144,1935.988159 
	C728.145325,1936.694702 717.005127,1938.488647 705.833679,1938.630493 
	C694.126526,1938.779297 682.306213,1938.256714 670.708740,1936.719604 
	C656.328308,1934.813477 642.000977,1932.092651 627.878784,1928.758057 
	C610.794678,1924.723755 594.599792,1918.154907 580.158325,1907.902344 
	C573.730164,1903.338623 567.546814,1898.429932 561.279480,1892.999756 
	C562.806274,1881.821411 560.141235,1873.173462 550.933716,1866.879517 
	C541.652527,1860.535278 534.880615,1852.063477 531.597290,1841.137817 
	C529.617676,1834.550781 531.938354,1829.200928 537.079041,1827.975952 
z"/>
<path fill="#FAD2E9" opacity="1.000000" stroke="none" 
	d="
M214.987778,1548.031860 
	C200.342941,1521.599976 188.541168,1494.154663 182.836166,1464.210938 
	C179.477921,1446.584473 175.815872,1429.086670 175.980988,1411.036499 
	C176.064240,1401.936523 175.834076,1392.831665 176.023697,1383.734985 
	C176.768356,1348.009277 184.770645,1313.555786 195.314331,1279.688721 
	C201.046326,1261.277100 209.508957,1243.918945 219.915451,1227.595581 
	C227.665085,1215.439697 234.899658,1202.913940 243.294632,1191.221313 
	C254.396606,1175.758179 267.499237,1161.964722 281.982849,1149.548828 
	C291.045441,1141.779907 300.111481,1134.014648 309.232788,1126.315186 
	C311.099121,1124.739746 313.218414,1123.464233 315.835541,1122.245850 
	C315.609863,1125.678833 314.836884,1128.935547 313.916321,1132.149902 
	C311.641510,1140.092407 309.299133,1148.015625 306.983887,1155.946533 
	C304.837219,1157.874390 302.690582,1159.802368 300.041504,1161.929810 
	C299.302002,1162.272705 299.126831,1162.470703 299.013580,1162.723511 
	C295.337219,1166.966064 291.652100,1171.200928 287.986023,1175.452393 
	C276.411285,1188.875366 265.749847,1202.947021 256.825134,1218.313843 
	C245.605438,1237.632080 236.389603,1257.912720 230.113892,1279.270508 
	C224.509018,1298.345337 219.140640,1317.726685 216.452942,1337.354248 
	C213.813370,1356.630371 213.380432,1376.446411 214.276917,1395.919800 
	C216.215195,1438.023438 227.343597,1478.134644 244.202805,1516.678955 
	C246.943802,1522.945557 249.979828,1529.083008 252.970306,1535.859131 
	C253.173569,1536.731812 253.381775,1536.918701 253.685776,1536.999023 
	C254.409225,1538.444702 255.132675,1539.890503 255.952576,1541.897705 
	C256.160034,1542.750854 256.367737,1542.931274 256.672119,1543.000366 
	C256.733551,1543.173706 256.795013,1543.346924 256.905640,1544.144531 
	C257.919708,1546.193848 258.884552,1547.618774 259.849426,1549.043579 
	C261.931854,1552.947754 263.927734,1556.901245 266.118256,1560.743774 
	C268.993286,1565.786743 272.021698,1570.742188 274.973389,1576.333984 
	C272.828156,1575.872192 270.540222,1575.038452 268.584686,1573.713867 
	C257.647400,1566.305176 246.296127,1559.385986 236.077179,1551.080444 
	C229.096100,1545.406494 222.509872,1545.592407 214.987778,1548.031860 
z"/>
<path fill="#DDDCCD" opacity="1.000000" stroke="none" 
	d="
M1085.996094,1018.995850 
	C1085.004883,1021.123718 1084.013672,1023.251587 1082.705078,1025.830566 
	C1082.191406,1026.484131 1082.064087,1026.723267 1082.005981,1026.999390 
	C1081.977783,1027.177979 1081.949707,1027.356689 1081.654541,1027.908936 
	C1081.190918,1028.483521 1081.063477,1028.721558 1081.005249,1028.996582 
	C1080.975586,1029.177246 1080.946045,1029.357910 1080.644531,1029.911133 
	C1080.181763,1030.483643 1080.058594,1030.718872 1080.003174,1030.989502 
	C1079.973999,1031.171875 1079.944702,1031.354126 1079.640869,1031.906128 
	C1079.177246,1032.470825 1079.053955,1032.700806 1078.996216,1032.966064 
	C1068.317261,1054.534912 1057.199951,1075.900391 1047.072144,1097.724976 
	C1034.884521,1123.988647 1023.258057,1150.523193 1011.902649,1177.159546 
	C999.506958,1206.235962 987.494690,1235.481079 975.721191,1264.815430 
	C969.678162,1279.871826 964.922363,1295.445435 958.869629,1310.497559 
	C948.919006,1335.243286 938.386841,1359.755371 927.597412,1384.703735 
	C925.850403,1385.748047 924.431274,1386.259521 923.389404,1387.192383 
	C916.620361,1393.253784 912.791321,1392.156494 910.247192,1383.314941 
	C910.066284,1382.686035 910.215149,1381.838745 909.844482,1381.408569 
	C907.958862,1379.219727 905.952576,1377.135010 903.988525,1375.013794 
	C909.196228,1361.689209 914.458862,1348.385620 919.596863,1335.034180 
	C925.446838,1319.832275 931.184875,1304.587158 936.973328,1289.361572 
	C949.371216,1256.750488 961.633972,1224.087158 974.213562,1191.546143 
	C983.612305,1167.233154 993.228149,1142.999390 1003.106934,1118.877808 
	C1011.135559,1099.273682 1019.685608,1079.882935 1028.027100,1060.407471 
	C1037.396118,1038.532593 1046.734253,1016.644348 1056.202148,994.812317 
	C1060.009399,986.033020 1064.125854,977.387695 1068.384644,968.213989 
	C1068.864380,967.555237 1068.974487,967.322876 1068.998047,967.049438 
	C1069.031860,966.861877 1069.065796,966.674255 1069.377197,966.114258 
	C1069.854370,965.546448 1069.966919,965.309692 1069.992676,965.031494 
	C1070.145996,964.439941 1070.299316,963.848328 1071.054932,963.308350 
	C1073.090820,969.236633 1075.857910,975.187195 1075.538208,980.966980 
	C1075.280640,985.625732 1076.393555,987.793701 1079.997437,989.253967 
	C1082.996948,990.469360 1083.849976,992.675720 1082.668335,995.111145 
	C1078.395996,1003.916687 1082.727539,1011.345032 1085.996094,1018.995850 
z"/>
<path fill="#F9C5E3" opacity="1.000000" stroke="none" 
	d="
M915.299072,1817.794556 
	C914.326416,1817.469116 913.672546,1816.571655 913.002136,1816.559204 
	C904.405396,1816.398193 896.504761,1813.601807 889.161560,1809.553101 
	C886.829834,1808.267456 885.800293,1804.760864 883.908936,1802.492432 
	C882.320435,1800.587158 880.345459,1799.004272 878.240784,1797.126465 
	C881.136475,1790.721436 884.118042,1784.347046 887.569641,1778.238281 
	C898.029663,1759.725586 904.349976,1739.723145 908.962097,1719.133911 
	C912.821167,1701.906372 917.041748,1684.705322 919.703125,1667.278809 
	C922.641296,1648.039551 923.984741,1628.556763 926.024719,1609.180298 
	C926.351929,1606.072388 926.688843,1602.965698 927.457458,1599.419312 
	C929.121887,1597.369629 930.350220,1595.759033 931.578552,1594.148438 
	C931.879578,1593.093872 933.232666,1592.984619 933.978149,1592.254761 
	C938.950745,1587.386108 943.828674,1589.748291 948.776794,1592.198608 
	C951.439941,1593.517212 954.149841,1594.741577 956.838562,1596.008545 
	C956.228394,1612.876343 955.717712,1629.748657 954.973267,1646.610474 
	C954.477173,1657.845703 953.951050,1669.095093 952.883606,1680.285156 
	C951.790222,1691.747437 950.037048,1703.147339 948.541687,1714.570435 
	C947.666931,1721.252563 947.159302,1728.018921 945.742554,1734.586914 
	C941.612549,1753.733887 936.493225,1772.628540 928.564575,1790.605347 
	C924.534851,1799.742065 919.946167,1808.632202 915.299072,1817.794556 
z"/>
<path fill="#F9C5E3" opacity="1.000000" stroke="none" 
	d="
M874.106812,1500.047729 
	C868.662354,1509.837280 863.612366,1519.873047 857.686951,1529.362305 
	C847.041504,1546.410400 836.211853,1563.366699 824.774841,1579.887573 
	C819.080200,1588.113647 812.116394,1595.518066 805.297180,1602.897339 
	C788.357910,1621.228638 769.876465,1637.933594 750.063965,1653.093018 
	C741.373535,1659.742554 732.043457,1665.556274 722.557800,1671.344238 
	C718.378967,1666.523560 715.146606,1661.817505 709.583191,1659.036133 
	C706.194580,1657.342041 703.794617,1653.670410 700.950562,1650.887207 
	C717.248169,1638.187256 733.946533,1625.961426 749.710144,1612.630127 
	C761.292419,1602.835083 772.363159,1592.222168 782.403503,1580.861572 
	C802.312744,1558.334961 820.480164,1534.485107 834.466858,1507.607422 
	C841.602295,1493.895508 850.176331,1480.933838 858.049622,1467.603271 
	C860.769165,1462.998779 863.335938,1458.303955 866.503906,1453.343018 
	C867.872498,1453.481323 869.163391,1453.718262 869.478699,1454.403931 
	C873.826599,1463.858276 876.249207,1473.575562 874.562988,1484.183838 
	C873.739441,1489.365112 874.217773,1494.753174 874.106812,1500.047729 
z"/>
<path fill="#ECAFCC" opacity="1.000000" stroke="none" 
	d="
M884.167053,217.008453 
	C877.680420,204.039993 872.431396,190.243393 864.431213,178.287750 
	C850.769531,157.871460 831.379395,144.322159 807.375427,137.885513 
	C806.493347,137.648987 805.682800,137.145966 804.968933,135.994064 
	C818.494934,135.994064 832.022156,136.104660 845.546509,135.957367 
	C855.490662,135.849045 865.430969,135.158707 875.373230,135.152466 
	C908.773682,135.131500 930.804871,153.023270 937.852356,185.073959 
	C940.660522,197.844666 942.088928,210.925522 943.976196,223.889816 
	C945.441650,233.956833 946.644470,244.062088 947.444214,254.577774 
	C937.347290,257.043274 930.494629,250.516510 922.786560,247.004425 
	C918.826111,245.199921 915.565125,241.814621 912.073425,239.036484 
	C903.918274,232.547989 893.459229,228.877975 887.901428,219.156113 
	C887.286377,218.080231 885.441528,217.707367 884.167053,217.008453 
z"/>
<path fill="#CBDFB8" opacity="1.000000" stroke="none" 
	d="
M480.197601,1515.011230 
	C479.756866,1502.006714 479.331329,1489.075928 476.139740,1476.275391 
	C471.913361,1459.324707 461.038452,1448.675293 446.123108,1440.976196 
	C435.847473,1435.672363 424.915649,1434.818237 413.719025,1434.845215 
	C400.748657,1434.876465 387.778168,1434.852539 374.797546,1434.382935 
	C381.701263,1433.922363 388.641815,1433.766846 395.501099,1432.938232 
	C410.137604,1431.170044 424.784576,1429.373535 439.328308,1426.985962 
	C452.988770,1424.743530 461.350372,1415.104004 467.992950,1403.992065 
	C475.937531,1390.702271 478.674744,1375.650635 480.878235,1360.629395 
	C482.262146,1351.195435 482.831055,1341.595215 483.076447,1332.052002 
	C483.433044,1318.184692 483.167908,1304.301270 483.167908,1290.424805 
	C483.649200,1290.372925 484.130463,1290.321167 484.611755,1290.269287 
	C485.041138,1290.906982 485.811890,1291.525146 485.849396,1292.185181 
	C486.557312,1304.641724 487.858154,1317.113770 487.665253,1329.561401 
	C487.341461,1350.455444 489.832306,1370.776367 498.992218,1389.643921 
	C508.902588,1410.057251 525.834778,1421.996704 548.075745,1425.837402 
	C556.941101,1427.368286 566.074951,1427.344604 575.501404,1428.411621 
	C575.606506,1429.810059 575.296692,1430.825439 574.986877,1431.840820 
	C565.398254,1432.885010 555.719482,1433.419189 546.242004,1435.092773 
	C532.024414,1437.603638 518.445496,1441.962402 508.773438,1453.765137 
	C500.036896,1464.426270 495.615387,1477.018799 493.051910,1490.328735 
	C491.786591,1496.898315 491.005981,1503.561401 489.563293,1510.602539 
	C486.146210,1512.352417 483.171906,1513.681763 480.197601,1515.011230 
z"/>
<path fill="#F9C5E3" opacity="1.000000" stroke="none" 
	d="
M1664.033447,523.606995 
	C1662.639526,523.694763 1661.245728,523.782532 1659.430420,523.388367 
	C1658.927246,522.056824 1658.845337,521.207214 1658.763550,520.357666 
	C1679.578613,518.236511 1700.480957,516.730225 1721.179443,513.789185 
	C1736.270020,511.644958 1752.085327,511.466156 1765.821899,503.633667 
	C1778.641357,496.324280 1787.141479,485.409821 1790.015625,470.609680 
	C1794.192871,449.098480 1797.493042,427.507141 1797.156128,405.478180 
	C1797.056274,398.952087 1797.978760,392.410370 1799.118408,385.806061 
	C1799.413086,390.003021 1799.934570,394.198486 1799.962036,398.397186 
	C1800.064087,414.057220 1799.303345,429.758820 1800.204956,445.367523 
	C1801.081177,460.536896 1803.885254,475.373901 1812.625366,488.639008 
	C1820.711548,500.911255 1832.368530,505.866302 1846.083740,506.970947 
	C1856.648438,507.821869 1867.295166,507.611237 1877.898193,508.049530 
	C1881.331543,508.191437 1884.741699,508.894012 1888.243408,510.000641 
	C1881.818237,510.652100 1875.378540,511.185425 1868.971436,511.982513 
	C1859.068237,513.214539 1848.900513,513.581055 1839.361450,516.197388 
	C1823.331055,520.594116 1814.323853,532.487000 1809.946899,548.163025 
	C1805.217651,565.100891 1803.513672,582.378174 1803.782715,599.921265 
	C1803.984497,613.080322 1803.952271,626.243835 1803.915039,639.405029 
	C1803.909790,641.272400 1803.285034,643.138062 1802.947021,645.004517 
	C1802.434082,644.949097 1801.921143,644.893677 1801.408203,644.838196 
	C1800.995361,642.334595 1800.403809,639.845642 1800.198242,637.325134 
	C1798.804077,620.219666 1797.475464,603.108887 1796.157349,585.997375 
	C1795.036133,571.441345 1793.421875,557.022705 1788.257690,543.168030 
	C1783.401245,530.138794 1773.863281,522.530701 1760.615479,521.255493 
	C1745.625977,519.812622 1730.443970,519.972717 1715.352051,520.116638 
	C1702.623657,520.238037 1689.903076,521.303406 1677.182739,522.016235 
	C1673.423950,522.226868 1669.677856,522.659363 1665.271484,523.031372 
	C1664.343018,523.163696 1664.148438,523.341858 1664.033447,523.606995 
z"/>
<path fill="#D4E1C5" opacity="1.000000" stroke="none" 
	d="
M1086.318359,1018.848938 
	C1082.727539,1011.345032 1078.395996,1003.916687 1082.668335,995.111145 
	C1083.849976,992.675720 1082.996948,990.469360 1079.997437,989.253967 
	C1076.393555,987.793701 1075.280640,985.625732 1075.538208,980.966980 
	C1075.857910,975.187195 1073.090820,969.236633 1071.337158,963.180847 
	C1071.036255,962.820862 1071.055298,962.639954 1071.335449,962.076477 
	C1071.775635,961.489441 1071.910400,961.259155 1072.001099,961.003052 
	C1073.029175,958.558105 1074.057129,956.113098 1075.361938,953.200562 
	C1075.831177,952.543213 1075.950317,952.315063 1075.996216,952.048584 
	C1076.029541,951.861389 1076.062988,951.674255 1076.367920,951.107544 
	C1076.832153,950.531311 1076.950439,950.297058 1076.994263,950.025208 
	C1079.362671,944.910034 1081.730957,939.794861 1084.371582,934.208008 
	C1084.834473,933.548157 1084.953369,933.322388 1085.000610,933.058899 
	C1085.039673,932.869934 1085.078613,932.680969 1085.385498,932.115723 
	C1085.841675,931.552734 1085.958252,931.328735 1086.003418,931.067444 
	C1086.041504,930.876587 1086.079590,930.685669 1086.385742,930.114502 
	C1086.841797,929.546448 1086.958496,929.321594 1087.003784,929.059692 
	C1087.037109,928.870239 1087.070312,928.680786 1087.375122,928.114319 
	C1087.837524,927.548096 1087.956665,927.321289 1088.004150,927.056824 
	C1088.038818,926.868042 1088.073486,926.679321 1088.378662,926.112488 
	C1088.840088,925.543518 1088.959351,925.315247 1089.007202,925.049683 
	C1089.007202,925.049683 1088.990723,925.001343 1089.354980,924.940674 
	C1091.808228,920.580750 1093.897339,916.281433 1095.986328,911.982056 
	C1096.013794,911.808472 1096.041382,911.634888 1096.337036,911.095093 
	C1096.812378,910.526794 1096.941528,910.283386 1096.992676,909.998657 
	C1097.021118,909.821594 1097.049683,909.644592 1097.346191,909.097473 
	C1097.817505,908.526306 1097.943970,908.284790 1097.993164,908.002869 
	C1098.329956,907.196594 1098.666748,906.390381 1099.313965,905.158630 
	C1099.825195,904.536072 1099.950317,904.299133 1100.000000,904.022339 
	C1100.029907,903.840942 1100.059692,903.659546 1100.357544,903.105164 
	C1100.824951,902.535156 1100.949829,902.298767 1101.000244,902.023010 
	C1101.032837,901.841492 1101.065308,901.659912 1101.366699,901.108154 
	C1101.831909,900.545227 1101.955566,900.313477 1102.006348,900.042847 
	C1102.037842,899.857605 1102.069214,899.672424 1102.369507,899.115356 
	C1102.833618,898.555298 1102.957031,898.328186 1103.009033,898.062073 
	C1103.043091,897.873291 1103.077271,897.684570 1103.379639,897.119873 
	C1103.840088,896.557495 1103.960938,896.332642 1104.010498,896.069397 
	C1104.046875,895.879639 1104.083252,895.689941 1104.388428,895.123901 
	C1104.848389,894.561096 1104.967651,894.336487 1105.015503,894.073853 
	C1105.052368,893.882690 1105.089111,893.691528 1105.400146,893.130981 
	C1105.863647,892.580505 1105.979980,892.360718 1106.023193,892.102295 
	C1106.061035,891.906189 1106.098877,891.710022 1106.407227,891.132080 
	C1106.863037,890.565491 1106.976807,890.344055 1107.019165,890.085999 
	C1107.343506,889.578491 1107.667847,889.070923 1108.486084,888.298828 
	C1112.631714,889.433838 1116.168457,890.636292 1118.917236,886.280457 
	C1119.403931,885.509216 1121.016357,885.501160 1122.046997,885.010620 
	C1124.973755,883.617554 1127.869019,882.158020 1130.775757,880.723022 
	C1132.948853,879.650269 1136.144897,877.093262 1137.112061,877.761963 
	C1140.907959,880.386780 1142.135620,877.524231 1143.921997,875.552734 
	C1145.918945,873.348755 1147.672119,870.903931 1149.805176,868.847839 
	C1154.210938,864.600830 1158.674927,860.393127 1163.382935,856.492798 
	C1164.883789,855.249390 1167.382446,853.276794 1168.970337,856.894958 
	C1168.631836,857.415100 1168.293335,857.935181 1167.657959,858.861938 
	C1167.167847,859.466370 1167.046753,859.701477 1166.997925,859.973877 
	C1166.958984,860.155396 1166.920166,860.336853 1166.617920,860.889526 
	C1166.163086,861.451233 1166.041504,861.679016 1165.989624,861.944092 
	C1165.950195,862.130615 1165.910645,862.317139 1165.607178,862.878967 
	C1165.152588,863.442078 1165.033569,863.667664 1164.985962,863.931030 
	C1164.948608,864.120361 1164.911255,864.309692 1164.607910,864.873169 
	C1164.149170,865.429810 1164.027100,865.651123 1163.975342,865.911316 
	C1163.975342,865.911316 1163.990112,865.979919 1163.614990,866.047974 
	C1162.496338,867.745728 1161.752563,869.375427 1161.008911,871.005188 
	C1155.525024,881.568237 1149.945801,892.083130 1144.578003,902.704834 
	C1134.943359,921.769836 1125.392090,940.877319 1115.888550,960.008057 
	C1107.830322,976.229004 1099.904907,992.515869 1091.881958,1008.754456 
	C1090.222412,1012.113586 1088.392212,1015.388367 1086.318359,1018.848938 
z"/>
<path fill="#D4E1C5" opacity="1.000000" stroke="none" 
	d="
M707.271240,1228.027466 
	C703.184326,1210.801514 697.027283,1194.364868 687.138428,1179.628174 
	C679.668579,1168.496338 672.294434,1157.083130 663.266418,1147.278809 
	C655.202942,1138.521973 645.278992,1131.319336 635.561157,1124.279541 
	C617.831177,1111.436035 597.633484,1103.642090 577.006775,1096.657104 
	C562.024963,1091.583618 546.703674,1088.814575 531.115906,1086.952393 
	C529.669922,1086.779663 528.257996,1086.322510 526.405334,1085.554565 
	C525.341858,1083.461792 524.663940,1081.825684 524.073303,1080.158813 
	C523.020508,1077.187622 522.020569,1074.197876 520.998474,1071.215820 
	C536.250793,1073.646973 551.861816,1074.774048 566.662720,1078.845947 
	C584.343323,1083.710205 601.805115,1090.063721 618.460266,1097.730591 
	C630.659119,1103.345947 641.909607,1111.459229 652.648804,1119.679199 
	C662.543091,1127.252563 671.574768,1136.078491 680.314087,1145.010620 
	C702.376892,1167.559814 718.039062,1193.886108 724.747131,1224.968018 
	C726.808533,1234.519531 727.611511,1244.342529 729.036316,1254.704834 
	C729.180664,1255.642944 729.361877,1255.843018 729.625488,1255.968506 
	C729.718384,1260.343628 729.811218,1264.718628 729.650391,1269.825562 
	C728.484863,1271.694458 727.763062,1273.535278 726.627136,1273.841797 
	C722.599243,1274.929199 718.429932,1275.492920 714.314209,1276.255005 
	C714.243225,1272.787354 714.172241,1269.319824 714.333862,1265.177490 
	C714.154419,1262.995605 713.742371,1261.488281 713.330322,1259.980957 
	C713.233398,1258.606445 713.136475,1257.231812 712.977417,1255.239258 
	C712.811401,1254.348145 712.627380,1254.149536 712.363098,1254.025513 
	C712.278687,1252.621094 712.194275,1251.216553 712.322571,1249.182495 
	C711.804260,1247.030273 711.073242,1245.507568 710.342285,1243.984985 
	C710.266602,1242.915039 710.190918,1241.845093 710.302795,1240.218750 
	C710.106689,1239.103394 709.723022,1238.544434 709.339355,1237.985352 
	C709.246704,1236.917480 709.153992,1235.849487 708.985901,1234.179077 
	C708.791443,1233.312866 708.597229,1233.128418 708.327881,1233.023193 
	C708.229248,1232.275146 708.130615,1231.527100 708.014771,1230.122070 
	C707.755493,1228.985840 707.513367,1228.506714 707.271240,1228.027466 
z"/>
<path fill="#BBD99D" opacity="1.000000" stroke="none" 
	d="
M594.912354,545.975159 
	C584.223877,552.142761 573.036133,557.602905 562.995667,564.688599 
	C554.016846,571.025085 545.258057,578.286011 538.272888,586.693298 
	C527.384277,599.798767 529.012207,613.502502 544.907654,625.022034 
	C557.334961,634.028198 571.425781,635.423035 586.310913,633.937378 
	C582.646240,634.863525 579.029602,636.118286 575.309021,636.661987 
	C552.717163,639.963684 531.212219,637.690979 511.344421,625.079956 
	C500.881012,618.438232 495.246490,608.977234 494.592377,597.286987 
	C494.290558,591.892822 497.316589,585.904114 500.035553,580.828796 
	C507.118286,567.608032 519.491394,559.553406 531.440063,551.507141 
	C546.982849,541.040527 563.460754,532.104492 581.127563,525.579834 
	C584.185059,524.450623 587.242920,523.322266 590.575989,522.595764 
	C590.461243,524.138062 589.633850,525.326843 589.754578,526.410095 
	C590.371338,531.944397 591.098022,537.476562 592.118347,542.947571 
	C592.331543,544.090698 593.944458,544.972778 594.912354,545.975159 
z"/>
<path fill="#F3B9D8" opacity="1.000000" stroke="none" 
	d="
M884.096924,217.411148 
	C885.441528,217.707367 887.286377,218.080231 887.901428,219.156113 
	C893.459229,228.877975 903.918274,232.547989 912.073425,239.036484 
	C915.565125,241.814621 918.826111,245.199921 922.786560,247.004425 
	C930.494629,250.516510 937.347290,257.043274 947.373535,255.007324 
	C948.882568,274.024384 949.942566,293.039307 951.089417,312.685059 
	C951.291565,313.533325 951.428406,313.736267 951.586792,313.924683 
	C951.674500,322.648926 951.762146,331.373138 951.755188,340.558899 
	C947.663574,339.620453 942.778992,339.229828 939.830444,336.637360 
	C929.665588,327.700104 919.922241,318.638336 915.390564,304.747131 
	C911.849670,293.893066 905.271179,284.007660 899.785828,273.830139 
	C898.757202,271.921753 896.516541,270.666656 894.503052,269.060364 
	C890.789490,251.945053 887.408142,234.879456 884.096924,217.411148 
z"/>
<path fill="#F3B9D8" opacity="1.000000" stroke="none" 
	d="
M921.244263,1116.437134 
	C927.856995,1114.701172 930.964966,1110.780518 931.333801,1104.174316 
	C931.419312,1102.643311 932.664795,1100.419434 933.963501,1099.847778 
	C939.028992,1097.618652 939.220154,1093.164795 940.075134,1088.749268 
	C940.547485,1086.310059 941.661194,1083.931396 942.827820,1081.704712 
	C944.718018,1078.096924 946.889587,1074.636475 949.269165,1071.045166 
	C949.103516,1080.190063 948.609619,1089.403442 948.120239,1098.617310 
	C948.067444,1099.610596 948.014832,1100.604980 948.004517,1101.599243 
	C947.656250,1135.176758 947.111511,1168.754028 947.097595,1202.331665 
	C947.093628,1211.853882 945.824890,1220.646484 941.966431,1229.507812 
	C934.016479,1247.765991 926.998657,1266.430054 918.813843,1284.891724 
	C919.267212,1278.166626 919.713379,1271.441162 920.175842,1264.716675 
	C920.779785,1255.934204 921.795776,1247.158569 921.925110,1238.369507 
	C922.196045,1219.966919 922.111694,1201.556641 921.972046,1183.151123 
	C921.804443,1161.065674 921.427185,1138.981812 921.244263,1116.437134 
z"/>
<path fill="#D4E1C5" opacity="1.000000" stroke="none" 
	d="
M480.126953,1515.474243 
	C483.171906,1513.681763 486.146210,1512.352417 489.478455,1511.016846 
	C489.820984,1519.721558 489.805603,1528.432129 489.527649,1537.812378 
	C489.182343,1539.001953 489.099579,1539.521973 489.016785,1540.041992 
	C489.011536,1567.229248 489.006073,1594.416382 489.001038,1621.603638 
	C488.998901,1633.223755 488.505432,1644.869873 489.118683,1656.457520 
	C489.909851,1671.405762 491.441956,1686.321411 492.914673,1701.225586 
	C495.420593,1726.585693 501.825836,1751.090942 509.318054,1775.650757 
	C507.409698,1776.768921 505.792786,1777.525269 504.162903,1778.252441 
	C499.101227,1780.510742 494.034760,1782.758179 488.970093,1785.009766 
	C486.329163,1774.819458 482.880737,1764.760254 481.200195,1754.414185 
	C476.352448,1724.568604 476.743195,1694.394775 477.152771,1664.284058 
	C477.423126,1644.408203 478.738068,1624.547852 479.102295,1604.671631 
	C479.644257,1575.097656 479.759491,1545.515747 480.126953,1515.474243 
z"/>
<path fill="#ECAFCC" opacity="1.000000" stroke="none" 
	d="
M700.600586,1650.952637 
	C703.794617,1653.670410 706.194580,1657.342041 709.583191,1659.036133 
	C715.146606,1661.817505 718.378967,1666.523560 722.174194,1671.332275 
	C710.737793,1677.963745 699.693542,1685.333984 687.634094,1690.175171 
	C669.442322,1697.477905 650.774780,1703.871948 631.864319,1709.015259 
	C618.243652,1712.719849 603.967346,1714.613037 589.857178,1715.760986 
	C573.764648,1717.070312 557.513916,1717.259033 541.366211,1716.779785 
	C530.426514,1716.455078 519.544739,1714.146729 508.644043,1712.673584 
	C508.310242,1712.628540 508.054810,1712.003052 507.239044,1711.011841 
	C516.906189,1711.011841 525.954773,1710.922485 535.000977,1711.030273 
	C554.382507,1711.261230 573.047302,1707.126221 591.649109,1702.246704 
	C617.771423,1695.394531 642.131470,1684.313599 665.754333,1671.555664 
	C677.518982,1665.201904 688.768311,1657.894287 700.600586,1650.952637 
z"/>
<path fill="#ECAFCC" opacity="1.000000" stroke="none" 
	d="
M320.984131,1633.049805 
	C347.581909,1655.793701 377.054810,1674.126465 408.698761,1688.827515 
	C421.506409,1694.777466 435.087158,1699.132202 448.496185,1703.682007 
	C453.217651,1705.284058 458.482361,1705.265381 463.486786,1706.063232 
	C465.377991,1706.364746 467.234711,1706.882446 469.037598,1707.633911 
	C437.172821,1711.398560 406.837677,1705.147461 377.344757,1693.648804 
	C366.147797,1689.283325 354.755463,1685.204468 344.080078,1679.763062 
	C325.642334,1670.364868 308.895569,1658.280762 293.258789,1644.693237 
	C290.040802,1641.897095 286.653656,1639.295532 283.620300,1636.281494 
	C285.157104,1636.277588 286.690765,1636.242432 287.635773,1636.970947 
	C295.243347,1642.834717 304.769196,1640.978149 311.611572,1643.784302 
	C314.617615,1640.572754 316.746216,1638.366089 318.789246,1636.082886 
	C319.616974,1635.157837 320.258118,1634.065918 320.984131,1633.049805 
z"/>
<path fill="#F4CCE0" opacity="1.000000" stroke="none" 
	d="
M874.427002,1499.914429 
	C874.217773,1494.753174 873.739441,1489.365112 874.562988,1484.183838 
	C876.249207,1473.575562 873.826599,1463.858276 869.478699,1454.403931 
	C869.163391,1453.718262 867.872498,1453.481323 866.677246,1453.023193 
	C875.351624,1435.081055 884.543640,1417.229492 893.341431,1399.185669 
	C897.105591,1391.465576 900.048645,1383.345093 903.676636,1375.210205 
	C905.952576,1377.135010 907.958862,1379.219727 909.844482,1381.408569 
	C910.215149,1381.838745 910.066284,1382.686035 910.247192,1383.314941 
	C912.791321,1392.156494 916.620361,1393.253784 923.389404,1387.192383 
	C924.431274,1386.259521 925.850403,1385.748047 927.447632,1385.034790 
	C922.296631,1398.384033 917.162720,1411.907837 911.202271,1425.056885 
	C902.460205,1444.342407 893.195190,1463.392944 884.004517,1482.472046 
	C881.167603,1488.361572 877.846558,1494.017944 874.427002,1499.914429 
z"/>
<path fill="#ECAFCC" opacity="1.000000" stroke="none" 
	d="
M928.373718,1530.012329 
	C928.268127,1504.529419 928.738831,1479.025635 927.824768,1453.571777 
	C927.334778,1439.928833 930.022400,1427.670776 935.992126,1415.573975 
	C940.227600,1406.991455 943.164368,1397.767944 946.924255,1388.211792 
	C947.598938,1394.696533 948.415710,1400.638428 948.797668,1406.608032 
	C949.643188,1419.823120 950.293762,1433.050903 950.980652,1446.275757 
	C952.010986,1466.112427 952.990173,1485.951660 954.026672,1505.787964 
	C954.207031,1509.239258 954.562683,1512.681274 954.329224,1516.572998 
	C950.603210,1516.370483 947.272156,1516.053955 944.192017,1515.002563 
	C938.537598,1513.072510 930.187012,1518.457764 929.932678,1524.292236 
	C929.848755,1526.217896 928.917542,1528.106689 928.373718,1530.012329 
z"/>
<path fill="#CBDFB8" opacity="1.000000" stroke="none" 
	d="
M1169.296631,856.765808 
	C1167.382446,853.276794 1164.883789,855.249390 1163.382935,856.492798 
	C1158.674927,860.393127 1154.210938,864.600830 1149.805176,868.847839 
	C1147.672119,870.903931 1145.918945,873.348755 1143.921997,875.552734 
	C1142.135620,877.524231 1140.907959,880.386780 1137.112061,877.761963 
	C1136.144897,877.093262 1132.948853,879.650269 1130.775757,880.723022 
	C1127.869019,882.158020 1124.973755,883.617554 1122.046997,885.010620 
	C1121.016357,885.501160 1119.403931,885.509216 1118.917236,886.280457 
	C1116.168457,890.636292 1112.631714,889.433838 1108.623657,888.022461 
	C1111.502075,881.216553 1114.736938,874.422485 1118.299316,867.178711 
	C1118.823730,866.530823 1118.948120,866.294434 1119.000000,866.019897 
	C1119.028320,865.838501 1119.056641,865.657104 1119.355713,865.100586 
	C1119.823486,864.524597 1119.946777,864.285583 1119.996216,864.008423 
	C1120.979248,861.880310 1121.962280,859.752136 1123.270630,857.171753 
	C1123.802734,856.509827 1123.930908,856.259705 1123.980591,855.969360 
	C1123.980591,855.969360 1123.999268,855.993652 1123.985596,855.987183 
	C1124.755737,855.452209 1125.897705,855.104919 1126.270630,854.368347 
	C1132.839844,841.393921 1144.833984,834.971252 1156.680054,827.901855 
	C1165.537720,822.615723 1173.291138,815.458740 1181.440430,809.013672 
	C1186.234619,805.222107 1190.718750,801.029968 1195.605957,797.369934 
	C1197.113647,796.240845 1199.490479,796.272217 1201.782715,795.906433 
	C1202.058105,796.208191 1202.019775,796.375671 1201.705566,796.917114 
	C1201.211792,797.511719 1201.078369,797.775208 1201.029297,798.081482 
	C1196.346558,806.441467 1191.529053,814.729492 1187.014893,823.179443 
	C1181.092529,834.265015 1175.409058,845.478271 1169.296631,856.765808 
z"/>
<path fill="#C5DBB0" opacity="1.000000" stroke="none" 
	d="
M595.255249,545.915710 
	C593.944458,544.972778 592.331543,544.090698 592.118347,542.947571 
	C591.098022,537.476562 590.371338,531.944397 589.754578,526.410095 
	C589.633850,525.326843 590.461243,524.138062 590.930908,522.690125 
	C591.192932,522.310974 591.375427,522.239685 592.190186,522.110474 
	C594.205322,521.474854 595.588318,520.897217 596.971313,520.319580 
	C606.692261,516.580688 616.226440,512.222290 626.170593,509.224060 
	C651.679565,501.532806 677.370728,494.445679 702.988953,487.116669 
	C704.063599,486.809265 705.137268,486.498138 706.493896,486.613403 
	C704.871216,488.341888 702.027222,489.246338 701.265686,491.036591 
	C699.881714,494.289978 699.487305,498.049927 699.197754,501.640259 
	C699.085022,503.038452 700.373108,504.549591 701.023132,506.009277 
	C687.454651,510.395142 673.763062,514.438293 660.349121,519.254517 
	C644.013000,525.119934 627.910461,531.635925 611.139832,537.984009 
	C610.327087,538.214417 610.147278,538.396423 610.033386,538.643555 
	C609.850464,538.712463 609.667603,538.781433 609.015320,538.969543 
	C608.305298,539.206543 608.133850,539.389282 608.031616,539.636963 
	C607.845154,539.705566 607.658630,539.774170 607.002319,539.965454 
	C606.296753,540.206055 606.130981,540.387817 606.035278,540.633484 
	C603.889832,541.702209 601.744324,542.770996 599.056885,543.961975 
	C598.280334,544.204712 598.118164,544.388916 598.028442,544.636902 
	C597.218384,545.043335 596.408264,545.449829 595.255249,545.915710 
z"/>
<path fill="#DDDCCD" opacity="1.000000" stroke="none" 
	d="
M520.571289,1071.123413 
	C522.020569,1074.197876 523.020508,1077.187622 524.073303,1080.158813 
	C524.663940,1081.825684 525.341858,1083.461792 525.988586,1085.478027 
	C521.896851,1085.564575 517.794312,1085.010620 513.697571,1085.050781 
	C493.260834,1085.250854 472.769012,1085.278809 452.709534,1089.857788 
	C436.229858,1093.619751 419.829559,1097.760864 403.496277,1102.116943 
	C397.095856,1103.823853 390.973907,1106.574951 384.349304,1108.386719 
	C385.699707,1103.245483 386.906616,1098.271851 389.342957,1093.999268 
	C390.855164,1091.347168 394.339203,1089.872437 396.716522,1087.633911 
	C397.627228,1086.776367 400.766693,1085.378296 396.920654,1083.985962 
	C404.641754,1081.685303 412.235504,1078.700195 420.112061,1077.234863 
	C433.938202,1074.662476 447.894836,1072.626343 461.877686,1071.112915 
	C473.189453,1069.888672 484.617126,1069.371582 495.999054,1069.284302 
	C504.042480,1069.222656 512.095398,1070.404297 520.571289,1071.123413 
z"/>
<path fill="#DDDCCD" opacity="1.000000" stroke="none" 
	d="
M488.989197,1785.353027 
	C494.034760,1782.758179 499.101227,1780.510742 504.162903,1778.252441 
	C505.792786,1777.525269 507.409698,1776.768921 509.390228,1776.012695 
	C515.640381,1791.442993 522.167969,1806.572266 531.706665,1820.202881 
	C533.384155,1822.599854 535.131836,1824.947754 536.963013,1827.647095 
	C531.938354,1829.200928 529.617676,1834.550781 531.597290,1841.137817 
	C534.880615,1852.063477 541.652527,1860.535278 550.933716,1866.879517 
	C560.141235,1873.173462 562.806274,1881.821411 561.144531,1892.690063 
	C553.130127,1885.586792 544.323059,1878.874512 537.642090,1870.471802 
	C526.746948,1856.768921 516.324646,1842.502930 507.435150,1827.451416 
	C500.293396,1815.359253 495.717590,1801.751465 489.929718,1788.228516 
	C489.728333,1787.381348 489.540283,1787.177368 489.292145,1787.028687 
	C489.197540,1786.584595 489.102936,1786.140381 488.989197,1785.353027 
z"/>
<path fill="#F3B9D8" opacity="1.000000" stroke="none" 
	d="
M928.282654,1530.472168 
	C928.917542,1528.106689 929.848755,1526.217896 929.932678,1524.292236 
	C930.187012,1518.457764 938.537598,1513.072510 944.192017,1515.002563 
	C947.272156,1516.053955 950.603210,1516.370483 954.231995,1517.017578 
	C955.097900,1531.575928 955.563721,1546.134521 956.004333,1560.693970 
	C956.353149,1572.221436 956.670959,1583.749878 956.920532,1595.643188 
	C954.149841,1594.741577 951.439941,1593.517212 948.776794,1592.198608 
	C943.828674,1589.748291 938.950745,1587.386108 933.978149,1592.254761 
	C933.232666,1592.984619 931.879578,1593.093872 931.578552,1594.148438 
	C930.350220,1595.759033 929.121887,1597.369629 927.528442,1598.994629 
	C927.506104,1576.316650 927.848877,1553.624390 928.282654,1530.472168 
z"/>
<path fill="#F3B9D8" opacity="1.000000" stroke="none" 
	d="
M320.840637,1632.734131 
	C320.258118,1634.065918 319.616974,1635.157837 318.789246,1636.082886 
	C316.746216,1638.366089 314.617615,1640.572754 311.611572,1643.784302 
	C304.769196,1640.978149 295.243347,1642.834717 287.635773,1636.970947 
	C286.690765,1636.242432 285.157104,1636.277588 283.509216,1635.961792 
	C264.352814,1619.099854 247.536942,1600.503296 233.585434,1579.346436 
	C249.285126,1583.239258 262.094177,1592.458496 275.747437,1600.057983 
	C281.973816,1603.523682 288.397736,1607.204346 296.107178,1605.960205 
	C303.026245,1613.589600 309.930237,1621.232788 316.878906,1628.835205 
	C318.053040,1630.119629 319.419525,1631.228394 320.840637,1632.734131 
z"/>
<path fill="#F4CCE0" opacity="1.000000" stroke="none" 
	d="
M396.523621,1084.000000 
	C400.766693,1085.378296 397.627228,1086.776367 396.716522,1087.633911 
	C394.339203,1089.872437 390.855164,1091.347168 389.342957,1093.999268 
	C386.906616,1098.271851 385.699707,1103.245483 383.970459,1108.329834 
	C383.201080,1109.131104 382.434662,1109.525757 381.136444,1110.007812 
	C380.338562,1110.216553 380.140686,1110.408203 380.011047,1110.670288 
	C378.918030,1111.088135 377.825012,1111.505981 376.167664,1112.012817 
	C375.335968,1112.228638 375.135376,1112.423950 375.001495,1112.687744 
	C374.834076,1112.755127 374.666626,1112.822632 374.034454,1112.986694 
	C373.311218,1113.203857 373.123993,1113.394653 373.008148,1113.655396 
	C372.832031,1113.726074 372.655945,1113.796631 372.011353,1113.967529 
	C371.293091,1114.181396 371.118561,1114.366089 371.019287,1114.621826 
	C360.816986,1120.317261 350.263000,1125.474243 340.504547,1131.848877 
	C329.181000,1139.246094 318.555939,1147.712402 307.305817,1155.830566 
	C309.299133,1148.015625 311.641510,1140.092407 313.916321,1132.149902 
	C314.836884,1128.935547 315.609863,1125.678833 316.184509,1122.200928 
	C327.049683,1112.808716 339.386169,1105.538208 352.651428,1100.124146 
	C366.952545,1094.287109 381.619385,1089.346069 396.523621,1084.000000 
z"/>
<path fill="#D4E1C5" opacity="1.000000" stroke="none" 
	d="
M1658.405762,520.256897 
	C1658.845337,521.207214 1658.927246,522.056824 1659.013916,523.333740 
	C1643.217896,524.842102 1627.428223,526.138855 1611.613525,526.953186 
	C1588.367065,528.150085 1565.096436,528.879395 1541.848145,530.045410 
	C1526.548828,530.812683 1511.227661,531.575806 1495.995483,533.120911 
	C1482.218994,534.518250 1468.550049,536.973755 1454.425781,538.886780 
	C1455.407349,536.622925 1456.587402,534.261047 1458.229492,532.282837 
	C1461.702148,528.099304 1465.416382,524.116089 1469.027832,519.690552 
	C1487.745117,519.916870 1506.463745,520.903564 1525.187378,521.008240 
	C1566.372437,521.238464 1607.559937,521.040771 1648.746338,520.953918 
	C1651.847412,520.947388 1654.947510,520.434021 1658.405762,520.256897 
z"/>
<path fill="#F9C5E3" opacity="1.000000" stroke="none" 
	d="
M296.036743,1605.707031 
	C288.397736,1607.204346 281.973816,1603.523682 275.747437,1600.057983 
	C262.094177,1592.458496 249.285126,1583.239258 233.570068,1579.000244 
	C227.148575,1568.913452 221.096985,1558.837646 215.016586,1548.396729 
	C222.509872,1545.592407 229.096100,1545.406494 236.077179,1551.080444 
	C246.296127,1559.385986 257.647400,1566.305176 268.584686,1573.713867 
	C270.540222,1575.038452 272.828156,1575.872192 275.135498,1576.629028 
	C281.236633,1585.022095 287.154663,1593.725830 293.120941,1602.396240 
	C293.448669,1602.872437 294.178040,1603.072266 294.916565,1603.925781 
	C295.251892,1604.702148 295.454681,1604.881592 295.721008,1604.989136 
	C295.802765,1605.143921 295.884552,1605.298828 296.036743,1605.707031 
z"/>
<path fill="#C5DBB0" opacity="1.000000" stroke="none" 
	d="
M714.205688,1276.623535 
	C718.429932,1275.492920 722.599243,1274.929199 726.627136,1273.841797 
	C727.763062,1273.535278 728.484863,1271.694458 729.661255,1270.292358 
	C729.934937,1272.629272 730.188721,1275.257812 729.910889,1277.828735 
	C728.663330,1289.372314 727.479309,1300.930908 725.805725,1312.416138 
	C725.205750,1316.533447 723.169434,1320.424072 722.000732,1324.479248 
	C718.061890,1338.145630 713.016785,1351.351074 705.994141,1363.754883 
	C703.554749,1368.063477 701.093262,1372.359619 697.997986,1376.775146 
	C694.895325,1374.258057 692.436523,1371.626953 689.977722,1368.995972 
	C690.013794,1368.819458 690.049805,1368.642944 690.359314,1368.100342 
	C690.832764,1367.534058 690.954590,1367.293945 690.998352,1367.014160 
	C698.309998,1353.546143 704.044067,1339.420410 707.214905,1324.434937 
	C709.639832,1312.974731 711.254211,1301.337524 713.033569,1289.749146 
	C713.679626,1285.541504 713.759155,1281.246826 714.205688,1276.623535 
z"/>
<path fill="#CBDFB8" opacity="1.000000" stroke="none" 
	d="
M701.363525,505.984741 
	C700.373108,504.549591 699.085022,503.038452 699.197754,501.640259 
	C699.487305,498.049927 699.881714,494.289978 701.265686,491.036591 
	C702.027222,489.246338 704.871216,488.341888 706.889282,486.710510 
	C723.349854,483.115326 739.665161,479.672089 756.058228,476.651367 
	C764.743042,475.051056 773.559326,474.155945 782.324219,473.003021 
	C785.560303,472.577362 788.819275,472.325470 792.787659,471.986267 
	C793.994019,471.749817 794.480530,471.521423 794.967041,471.293030 
	C796.041992,471.201904 797.117004,471.110779 798.593628,471.482208 
	C798.330078,475.294159 797.664795,478.643555 796.999512,481.992950 
	C796.999512,481.992950 797.000000,482.001221 796.807495,482.053345 
	C796.369019,482.216248 796.177429,482.387726 796.040161,482.619934 
	C794.960022,482.723541 793.879944,482.827148 792.206299,483.017761 
	C791.368591,483.214844 791.178345,483.385254 791.042114,483.615936 
	C777.777222,486.488403 764.434753,489.048645 751.268372,492.317749 
	C737.031799,495.852509 722.959717,500.049194 708.145325,503.987610 
	C706.993408,504.249084 706.512085,504.480103 706.030701,504.711121 
	C705.594543,504.801788 705.158325,504.892456 704.184875,505.055054 
	C703.385315,505.244934 703.179382,505.426697 703.029907,505.672302 
	C702.587891,505.768280 702.145874,505.864227 701.363525,505.984741 
z"/>
<path fill="#BBD99D" opacity="1.000000" stroke="none" 
	d="
M689.668213,1369.150391 
	C692.436523,1371.626953 694.895325,1374.258057 697.694580,1376.953125 
	C683.994690,1398.264893 666.730469,1415.964600 642.352478,1425.004761 
	C630.972168,1429.224976 619.016418,1431.339111 606.640442,1431.042725 
	C596.409424,1430.797607 586.152405,1431.642334 575.446899,1431.922607 
	C575.296692,1430.825439 575.606506,1429.810059 575.951294,1428.476318 
	C587.102356,1427.771484 598.229675,1427.581299 609.331909,1426.950684 
	C624.934509,1426.064331 638.936523,1420.338379 651.805542,1411.768799 
	C668.052246,1400.950073 679.461548,1385.778198 689.668213,1369.150391 
z"/>
<path fill="#C5DBB0" opacity="1.000000" stroke="none" 
	d="
M797.424927,481.969543 
	C797.664795,478.643555 798.330078,475.294159 798.994568,471.552826 
	C828.681519,467.704529 858.378418,464.710510 888.286377,470.009796 
	C878.067017,470.957245 867.818909,471.669312 857.635498,472.911499 
	C844.774719,474.480194 831.956177,476.410583 819.140076,478.323212 
	C812.021851,479.385498 804.945557,480.729248 797.424927,481.969543 
z"/>
<path fill="#CBDFB8" opacity="1.000000" stroke="none" 
	d="
M1095.664429,912.118225 
	C1093.897339,916.281433 1091.808228,920.580750 1089.380371,924.943604 
	C1091.141968,920.756226 1093.242310,916.505310 1095.664429,912.118225 
z"/>
<path fill="#C5DBB0" opacity="1.000000" stroke="none" 
	d="
M713.239075,1260.363037 
	C713.742371,1261.488281 714.154419,1262.995605 714.315979,1264.738037 
	C713.759583,1263.563843 713.453735,1262.154419 713.239075,1260.363037 
z"/>
<path fill="#C5DBB0" opacity="1.000000" stroke="none" 
	d="
M710.250854,1244.334717 
	C711.073242,1245.507568 711.804260,1247.030273 712.309570,1248.759399 
	C711.442383,1247.538818 710.800842,1246.111694 710.250854,1244.334717 
z"/>
<path fill="#ECAFCC" opacity="1.000000" stroke="none" 
	d="
M259.865723,1548.695312 
	C258.884552,1547.618774 257.919708,1546.193848 256.973907,1544.411621 
	C257.955994,1545.485229 258.919006,1546.916260 259.865723,1548.695312 
z"/>
<path fill="#CBDFB8" opacity="1.000000" stroke="none" 
	d="
M1161.319458,870.866333 
	C1161.752563,869.375427 1162.496338,867.745728 1163.580200,866.044434 
	C1163.156982,867.557739 1162.393433,869.142639 1161.319458,870.866333 
z"/>
<path fill="#BBD99D" opacity="1.000000" stroke="none" 
	d="
M596.624146,520.245544 
	C595.588318,520.897217 594.205322,521.474854 592.476807,522.045288 
	C593.513123,521.415833 594.895020,520.793701 596.624146,520.245544 
z"/>
<path fill="#C5DBB0" opacity="1.000000" stroke="none" 
	d="
M709.249573,1238.287354 
	C709.723022,1238.544434 710.106689,1239.103394 710.282349,1239.815430 
	C709.769470,1239.508789 709.464600,1239.049072 709.249573,1238.287354 
z"/>
<path fill="#CBDFB8" opacity="1.000000" stroke="none" 
	d="
M489.275848,1539.897949 
	C489.099579,1539.521973 489.182343,1539.001953 489.435181,1538.277344 
	C489.581787,1538.633179 489.558350,1539.193604 489.275848,1539.897949 
z"/>
<path fill="#C5DBB0" opacity="1.000000" stroke="none" 
	d="
M706.322266,504.778076 
	C706.512085,504.480103 706.993408,504.249084 707.750671,504.015472 
	C707.555664,504.290253 707.084778,504.567627 706.322266,504.778076 
z"/>
<path fill="#C5DBB0" opacity="1.000000" stroke="none" 
	d="
M794.675476,471.221313 
	C794.480530,471.521423 793.994019,471.749817 793.229797,471.978760 
	C793.429382,471.702759 793.906677,471.426178 794.675476,471.221313 
z"/>
<path fill="#C5DBB0" opacity="1.000000" stroke="none" 
	d="
M707.199097,1228.321411 
	C707.513367,1228.506714 707.755493,1228.985840 707.990723,1229.743530 
	C707.698181,1229.553101 707.412598,1229.084229 707.199097,1228.321411 
z"/>
<path fill="#DDDCCD" opacity="1.000000" stroke="none" 
	d="
M371.247498,1114.696289 
	C371.118561,1114.366089 371.293091,1114.181396 371.731689,1114.020142 
	C371.944885,1114.334839 371.796631,1114.600952 371.247498,1114.696289 
z"/>
<path fill="#C5DBB0" opacity="1.000000" stroke="none" 
	d="
M708.267883,1233.256836 
	C708.597229,1233.128418 708.791443,1233.312866 708.954834,1233.776611 
	C708.643860,1233.963745 708.380066,1233.801758 708.267883,1233.256836 
z"/>
<path fill="#F4CCE0" opacity="1.000000" stroke="none" 
	d="
M299.248047,1162.748535 
	C299.126831,1162.470703 299.302002,1162.272705 299.725464,1162.055054 
	C299.931152,1162.333008 299.788055,1162.597168 299.248047,1162.748535 
z"/>
<path fill="#DDDCCD" opacity="1.000000" stroke="none" 
	d="
M380.246887,1110.718018 
	C380.140686,1110.408203 380.338562,1110.216553 380.808319,1110.043457 
	C380.955750,1110.331787 380.779327,1110.589844 380.246887,1110.718018 
z"/>
<path fill="#DDDCCD" opacity="1.000000" stroke="none" 
	d="
M373.244324,1113.721436 
	C373.123993,1113.394653 373.311218,1113.203857 373.767426,1113.031738 
	C373.961090,1113.343994 373.799561,1113.613037 373.244324,1113.721436 
z"/>
<path fill="#DDDCCD" opacity="1.000000" stroke="none" 
	d="
M375.244751,1112.746826 
	C375.135376,1112.423950 375.335968,1112.228638 375.809448,1112.046875 
	C375.839722,1112.263306 375.663849,1112.534668 375.244751,1112.746826 
z"/>
<path fill="#BBD99D" opacity="1.000000" stroke="none" 
	d="
M608.258667,539.704346 
	C608.133850,539.389282 608.305298,539.206543 608.729492,539.034546 
	C608.945312,539.338562 608.802856,539.602295 608.258667,539.704346 
z"/>
<path fill="#C5DBB0" opacity="1.000000" stroke="none" 
	d="
M712.286560,1254.256592 
	C712.627380,1254.149536 712.811401,1254.348145 712.950195,1254.825439 
	C712.638245,1254.975586 712.379883,1254.794922 712.286560,1254.256592 
z"/>
<path fill="#C5DBB0" opacity="1.000000" stroke="none" 
	d="
M729.700867,1255.740601 
	C729.361877,1255.843018 729.180664,1255.642944 729.051270,1255.163818 
	C729.356140,1255.029663 729.608032,1255.214111 729.700867,1255.740601 
z"/>
<path fill="#BBD99D" opacity="1.000000" stroke="none" 
	d="
M610.260864,538.706665 
	C610.147278,538.396423 610.327087,538.214417 610.760254,538.043823 
	C610.949829,538.341370 610.796753,538.601318 610.260864,538.706665 
z"/>
<path fill="#BBD99D" opacity="1.000000" stroke="none" 
	d="
M690.769714,1367.083252 
	C690.954590,1367.293945 690.832764,1367.534058 690.465088,1367.851685 
	C690.103271,1367.614502 690.184448,1367.342285 690.769714,1367.083252 
z"/>
<path fill="#D4E1C5" opacity="1.000000" stroke="none" 
	d="
M1664.255615,523.689575 
	C1664.148438,523.341858 1664.343018,523.163696 1664.818115,523.049316 
	C1664.957886,523.361267 1664.777466,523.609924 1664.255615,523.689575 
z"/>
<path fill="#C5DBB0" opacity="1.000000" stroke="none" 
	d="
M796.265015,482.692444 
	C796.177429,482.387726 796.369019,482.216248 796.802979,482.052368 
	C796.955994,482.340973 796.788940,482.596191 796.265015,482.692444 
z"/>
<path fill="#ECAFCC" opacity="1.000000" stroke="none" 
	d="
M253.761078,1536.756592 
	C253.381775,1536.918701 253.173569,1536.731812 253.034180,1536.223389 
	C253.283600,1536.177124 253.559998,1536.345581 253.761078,1536.756592 
z"/>
<path fill="#ECAFCC" opacity="1.000000" stroke="none" 
	d="
M256.752014,1542.759033 
	C256.367737,1542.931274 256.160034,1542.750854 256.021912,1542.247314 
	C256.273834,1542.196289 256.552887,1542.357056 256.752014,1542.759033 
z"/>
<path fill="#F9C5E3" opacity="1.000000" stroke="none" 
	d="
M951.657715,313.711060 
	C951.428406,313.736267 951.291565,313.533325 951.091003,313.152893 
	C951.314270,313.062805 951.555237,313.231964 951.657715,313.711060 
z"/>
<path fill="#F3B9D8" opacity="1.000000" stroke="none" 
	d="
M295.744629,1604.754150 
	C295.454681,1604.881592 295.251892,1604.702148 295.048218,1604.255005 
	C295.331604,1604.065186 295.593079,1604.218628 295.744629,1604.754150 
z"/>
<path fill="#C5DBB0" opacity="1.000000" stroke="none" 
	d="
M703.264038,505.726135 
	C703.179382,505.426697 703.385315,505.244934 703.848877,505.072449 
	C703.971924,505.348480 703.787964,505.602539 703.264038,505.726135 
z"/>
<path fill="#D4E1C5" opacity="1.000000" stroke="none" 
	d="
M489.257782,1787.264160 
	C489.540283,1787.177368 489.728333,1787.381348 489.919800,1787.841309 
	C489.657776,1787.962158 489.404480,1787.781494 489.257782,1787.264160 
z"/>
<path fill="#C5DBB0" opacity="1.000000" stroke="none" 
	d="
M791.265686,483.688843 
	C791.178345,483.385254 791.368591,483.214844 791.799561,483.051941 
	C791.953186,483.339783 791.787537,483.594025 791.265686,483.688843 
z"/>
<path fill="#CBDFB8" opacity="1.000000" stroke="none" 
	d="
M1106.792480,890.132446 
	C1106.976807,890.344055 1106.863037,890.565491 1106.520386,890.854614 
	C1106.137085,890.622742 1106.204712,890.362671 1106.792480,890.132446 
z"/>
<path fill="#CBDFB8" opacity="1.000000" stroke="none" 
	d="
M1097.756958,908.067871 
	C1097.943970,908.284790 1097.817505,908.526306 1097.445312,908.847412 
	C1097.069214,908.604797 1097.150635,908.326599 1097.756958,908.067871 
z"/>
<path fill="#CBDFB8" opacity="1.000000" stroke="none" 
	d="
M1099.765137,904.083008 
	C1099.950317,904.299133 1099.825195,904.536072 1099.458252,904.850586 
	C1099.082031,904.609497 1099.161377,904.334717 1099.765137,904.083008 
z"/>
<path fill="#CBDFB8" opacity="1.000000" stroke="none" 
	d="
M1100.765625,902.083130 
	C1100.949829,902.298767 1100.824951,902.535156 1100.459717,902.849121 
	C1100.082886,902.608154 1100.161987,902.333923 1100.765625,902.083130 
z"/>
<path fill="#CBDFB8" opacity="1.000000" stroke="none" 
	d="
M1101.773193,900.098450 
	C1101.955566,900.313477 1101.831909,900.545227 1101.471924,900.852173 
	C1101.095093,900.612732 1101.172241,900.341919 1101.773193,900.098450 
z"/>
<path fill="#CBDFB8" opacity="1.000000" stroke="none" 
	d="
M1102.776855,898.111877 
	C1102.957031,898.328186 1102.833618,898.555298 1102.476807,898.854736 
	C1102.102905,898.615356 1102.179565,898.347290 1102.776855,898.111877 
z"/>
<path fill="#CBDFB8" opacity="1.000000" stroke="none" 
	d="
M1103.779785,896.117432 
	C1103.960938,896.332642 1103.840088,896.557495 1103.487549,896.853149 
	C1103.110107,896.615723 1103.184082,896.350098 1103.779785,896.117432 
z"/>
<path fill="#CBDFB8" opacity="1.000000" stroke="none" 
	d="
M1104.784912,894.121094 
	C1104.967651,894.336487 1104.848389,894.561096 1104.497070,894.855164 
	C1104.116333,894.617737 1104.188843,894.352905 1104.784912,894.121094 
z"/>
<path fill="#CBDFB8" opacity="1.000000" stroke="none" 
	d="
M1105.796387,892.143433 
	C1105.979980,892.360718 1105.863647,892.580505 1105.514404,892.862305 
	C1105.140381,892.624512 1105.212036,892.365051 1105.796387,892.143433 
z"/>
<path fill="#CBDFB8" opacity="1.000000" stroke="none" 
	d="
M1096.753662,910.062805 
	C1096.941528,910.283386 1096.812378,910.526794 1096.434448,910.850098 
	C1096.058716,910.604004 1096.142456,910.322571 1096.753662,910.062805 
z"/>
<path fill="#C5DBB0" opacity="1.000000" stroke="none" 
	d="
M1118.771729,866.087769 
	C1118.948120,866.294434 1118.823730,866.530823 1118.462891,866.848267 
	C1118.104126,866.613647 1118.185669,866.343018 1118.771729,866.087769 
z"/>
<path fill="#CBDFB8" opacity="1.000000" stroke="none" 
	d="
M1164.210327,865.873779 
	C1164.027100,865.651123 1164.149170,865.429810 1164.502686,865.142822 
	C1164.893555,865.387207 1164.820679,865.653137 1164.210327,865.873779 
z"/>
<path fill="#C5DBB0" opacity="1.000000" stroke="none" 
	d="
M1119.767944,864.079773 
	C1119.946777,864.285583 1119.823486,864.524597 1119.461914,864.846436 
	C1119.099609,864.612732 1119.180298,864.340576 1119.767944,864.079773 
z"/>
<path fill="#CBDFB8" opacity="1.000000" stroke="none" 
	d="
M1165.219604,863.884888 
	C1165.033569,863.667664 1165.152588,863.442078 1165.503418,863.145386 
	C1165.895630,863.383179 1165.825562,863.650574 1165.219604,863.884888 
z"/>
<path fill="#CBDFB8" opacity="1.000000" stroke="none" 
	d="
M1166.224121,861.894165 
	C1166.041504,861.679016 1166.163086,861.451233 1166.514893,861.148132 
	C1166.903931,861.385559 1166.831787,861.655212 1166.224121,861.894165 
z"/>
<path fill="#CBDFB8" opacity="1.000000" stroke="none" 
	d="
M1167.230957,859.912109 
	C1167.046753,859.701477 1167.167847,859.466370 1167.523804,859.150757 
	C1167.908203,859.385986 1167.834106,859.658447 1167.230957,859.912109 
z"/>
<path fill="#C5DBB0" opacity="1.000000" stroke="none" 
	d="
M1123.746582,856.047852 
	C1123.930908,856.259705 1123.802734,856.509827 1123.424561,856.846436 
	C1123.061890,856.605896 1123.148438,856.323608 1123.746582,856.047852 
z"/>
<path fill="#BBD99D" opacity="1.000000" stroke="none" 
	d="
M598.255859,544.705322 
	C598.118164,544.388916 598.280334,544.204712 598.693726,544.027832 
	C598.939636,544.334412 598.809875,544.601868 598.255859,544.705322 
z"/>
<path fill="#DDDCCD" opacity="1.000000" stroke="none" 
	d="
M1071.775146,961.077026 
	C1071.910400,961.259155 1071.775635,961.489441 1071.446045,961.826965 
	C1071.105225,961.604187 1071.189819,961.334534 1071.775146,961.077026 
z"/>
<path fill="#C5DBB0" opacity="1.000000" stroke="none" 
	d="
M1201.266479,797.989380 
	C1201.078369,797.775208 1201.211792,797.511719 1201.608643,797.156006 
	C1201.693115,797.313049 1201.598389,797.605103 1201.266479,797.989380 
z"/>
<path fill="#BBD99D" opacity="1.000000" stroke="none" 
	d="
M606.260071,540.699707 
	C606.130981,540.387817 606.296753,540.206055 606.712158,540.033325 
	C606.936951,540.334412 606.801270,540.596863 606.260071,540.699707 
z"/>
<path fill="#D4E1C5" opacity="1.000000" stroke="none" 
	d="
M1079.218506,1032.898193 
	C1079.053955,1032.700806 1079.177246,1032.470825 1079.523926,1032.156982 
	C1079.871582,1032.384277 1079.791382,1032.648315 1079.218506,1032.898193 
z"/>
<path fill="#D4E1C5" opacity="1.000000" stroke="none" 
	d="
M1080.228027,1030.916992 
	C1080.058594,1030.718872 1080.181763,1030.483643 1080.532715,1030.162109 
	C1080.890137,1030.391113 1080.810059,1030.659058 1080.228027,1030.916992 
z"/>
<path fill="#D4E1C5" opacity="1.000000" stroke="none" 
	d="
M1081.238281,1028.929443 
	C1081.063477,1028.721558 1081.190918,1028.483521 1081.551392,1028.159912 
	C1081.920654,1028.397095 1081.839355,1028.672119 1081.238281,1028.929443 
z"/>
<path fill="#D4E1C5" opacity="1.000000" stroke="none" 
	d="
M1082.240967,1026.932373 
	C1082.064087,1026.723267 1082.191406,1026.484131 1082.551758,1026.157959 
	C1082.927368,1026.395142 1082.847656,1026.672241 1082.240967,1026.932373 
z"/>
<path fill="#CBDFB8" opacity="1.000000" stroke="none" 
	d="
M1068.773438,967.108032 
	C1068.974487,967.322876 1068.864380,967.555237 1068.501221,967.849976 
	C1068.120361,967.613403 1068.191650,967.351135 1068.773438,967.108032 
z"/>
<path fill="#CBDFB8" opacity="1.000000" stroke="none" 
	d="
M1069.766846,965.095886 
	C1069.966919,965.309692 1069.854370,965.546448 1069.486816,965.850159 
	C1069.109497,965.613403 1069.183594,965.347351 1069.766846,965.095886 
z"/>
<path fill="#F3B9D8" opacity="1.000000" stroke="none" 
	d="
M921.777344,1099.069824 
	C921.999207,1099.251343 921.916321,1099.498169 921.584656,1099.834717 
	C921.426941,1099.955200 921.256775,1099.519165 921.256775,1099.519165 
	C921.256775,1099.519165 921.563660,1099.165649 921.777344,1099.069824 
z"/>
<path fill="#CBDFB8" opacity="1.000000" stroke="none" 
	d="
M1075.770874,952.106689 
	C1075.950317,952.315063 1075.831177,952.543213 1075.477661,952.843872 
	C1075.114014,952.610596 1075.190308,952.347290 1075.770874,952.106689 
z"/>
<path fill="#CBDFB8" opacity="1.000000" stroke="none" 
	d="
M1076.768311,950.092102 
	C1076.950439,950.297058 1076.832153,950.531311 1076.477539,950.844238 
	C1076.108521,950.613403 1076.183960,950.346252 1076.768311,950.092102 
z"/>
<path fill="#CBDFB8" opacity="1.000000" stroke="none" 
	d="
M1084.772461,933.111450 
	C1084.953369,933.322388 1084.834473,933.548157 1084.484619,933.846497 
	C1084.109985,933.612854 1084.182983,933.348633 1084.772461,933.111450 
z"/>
<path fill="#CBDFB8" opacity="1.000000" stroke="none" 
	d="
M1085.776367,931.118530 
	C1085.958252,931.328735 1085.841675,931.552734 1085.495361,931.848022 
	C1085.118896,931.616333 1085.189697,931.354004 1085.776367,931.118530 
z"/>
<path fill="#CBDFB8" opacity="1.000000" stroke="none" 
	d="
M1086.777588,929.113770 
	C1086.958496,929.321594 1086.841797,929.546448 1086.495850,929.843994 
	C1086.119751,929.613159 1086.190918,929.351196 1086.777588,929.113770 
z"/>
<path fill="#CBDFB8" opacity="1.000000" stroke="none" 
	d="
M1087.778076,927.112915 
	C1087.956665,927.321289 1087.837524,927.548096 1087.487061,927.848389 
	C1087.120361,927.615906 1087.195312,927.352356 1087.778076,927.112915 
z"/>
<path fill="#CBDFB8" opacity="1.000000" stroke="none" 
	d="
M1088.779907,925.107361 
	C1088.959351,925.315247 1088.840088,925.543518 1088.489258,925.846680 
	C1088.117554,925.613831 1088.192017,925.349182 1088.779907,925.107361 
z"/>
</svg>